<?xml version="1.0" encoding="utf-8"?>
<!-- Generator: Adobe Illustrator 23.0.2, SVG Export Plug-In . SVG Version: 6.00 Build 0)  -->
<svg version="1.1" xmlns="http://www.w3.org/2000/svg" xmlns:xlink="http://www.w3.org/1999/xlink" x="0px" y="0px"
	 viewBox="0 0 500 500" style="enable-background:new 0 0 500 500;" xml:space="preserve">
<style type="text/css">
	.st0{display:none;}
	.st1{display:inline;fill:#FCEEE3;}
	.st2{fill:#BDE5F9;}
	.st3{fill:#466992;}
	.st4{fill:#C58F80;}
	.st5{fill:#DCE6F7;}
	.st6{fill:#BABCBE;}
	.st7{fill:#30405F;}
	.st8{fill:#E3E7FD;}
	.st9{fill:#59595B;}
	.st10{fill:#E5B7AC;}
	.st11{fill:#BE717E;}
	.st12{fill:#302E2F;}
	.st13{fill:#8CD3C9;}
	.st14{fill:#5CA098;}
	.st15{opacity:0.6;fill:#E6E6E7;}
	.st16{opacity:0.5;fill:#77B4D8;}
	.st17{opacity:0.3;fill:#FFFFFF;}
	.st18{fill:#5697B7;}
	.st19{fill:#AA7168;}
	.st20{opacity:0.3;fill:#C58F80;}
	.st21{fill:#4ABCBC;}
	.st22{fill:#03B8C6;}
	.st23{fill:#B0DAE7;}
	.st24{opacity:0.4;fill:#D0D1D3;}
	.st25{opacity:0.4;fill:#A6A8AA;}
	.st26{fill:#564B44;}
	.st27{fill:#B56F61;}
	.st28{fill:none;stroke:#FFFFFF;stroke-miterlimit:10;}
	.st29{fill:#D0D1D3;}
	.st30{fill:#434244;}
	.st31{opacity:0.5;fill:#CA7E86;}
	.st32{fill:#4B804D;}
	.st33{opacity:0.4;fill:#CA7E86;}
	.st34{fill:#CEEBF7;}
	.st35{fill:#E6E6E7;}
	.st36{fill:#F1F1F2;}
	.st37{fill:#BF8A82;}
	.st38{fill:#808083;}
	.st39{fill:#E5E5E6;}
	.st40{fill:#CA7E86;}
	.st41{fill:#C4807A;}
	.st42{fill:#CC938B;}
	.st43{fill:#A2BADD;}
	.st44{opacity:0.6;fill:#CA7E86;}
	.st45{fill:none;stroke:#A2BADD;stroke-miterlimit:10;}
	.st46{fill:#FFFFFF;}
	.st47{fill:#C53E5D;}
	.st48{fill:#7C5C50;}
	.st49{fill:#50372B;}
	.st50{fill:none;stroke:#385875;stroke-linecap:round;stroke-miterlimit:10;}
	.st51{fill:#A6A8AA;}
	.st52{fill:#A9D0DC;}
	.st53{fill:#5E9AA8;}
	.st54{fill:#335385;}
	.st55{opacity:0.4;fill:#BBBCBF;}
	.st56{fill:#704D3F;}
	.st57{fill:#FBF7EF;}
</style>
<g id="BACKGROUND" class="st0">
	<rect x="0.17" y="-0.5" class="st1" width="500" height="500"/>
</g>
<g id="OBJECTS">
	<g>
		<g>
			<g>
				<path class="st2" d="M400.02,146.59l4.66-4.06c0,0,13.64,9.64,12.17,49.85c-2,10.06-11.32,4.9-15.05,0.29
					c-3-4.45-8.04-35.69-8.04-35.69L400.02,146.59z"/>
			</g>
			<g>
				<path class="st3" d="M344.29,305.13c0.52,3.65,6.03,79.53,8.75,100.53l12.03-1.11l-2.44-108.01c0,0,14.85-62.65,14.92-63.68
					c0.07-1.01-1.04-29.36-1.04-29.36l-3.8-0.02l-22.56-0.11c0,0-6.38,12.76-8.54,28.04C339.04,244.59,343.64,300.46,344.29,305.13z
					"/>
				<path class="st3" d="M405.11,398.63l14.29-0.92c-0.08-9.46-28.45-133.91-21.1-146.81c4.57-8.01,4.86-17.36,3.62-25.6
					c-0.01-0.06-0.02-0.11-0.02-0.18c-1.47-9.65-5.02-17.78-6.24-20.43c-0.13-0.28-0.25-0.55-0.38-0.85
					c-0.81-1.87-1.64-4.19-2.38-6.37c-1.27-3.75-2.25-7.1-2.25-7.1l-3.62,1.8l-14.24,7.04l-0.24,2.13l-3.89,34.82
					C368.65,236.16,401.88,379.48,405.11,398.63z"/>
				<path class="st4" d="M350.3,191.27c-0.12,2.53-1.06,10.03-7.36,21.91C349.24,201.3,350.18,193.8,350.3,191.27z"/>
				<path class="st5" d="M349.88,133.22L349.88,133.22c3.07-1.57,6.6-3.09,10.52-4.31l0,0
					C356.48,130.14,352.95,131.65,349.88,133.22z"/>
				<path class="st5" d="M347.34,175.9c0,0,0,0.01,0.01,0.04c0,0.01,0.01,0.01,0.01,0.01c0.02,0.08,0.08,0.25,0.17,0.52
					c0.07,0.2,0.14,0.47,0.23,0.78c0.14,0.52,0.33,1.18,0.53,1.95c0.12,0.47,0.24,0.98,0.38,1.52c0.64,2.71,1.33,6.3,1.64,10.1
					c0,0.12-0.01,0.27-0.01,0.44c0.01-0.17,0.01-0.32,0.01-0.44c-0.31-3.8-1-7.4-1.64-10.1c-0.13-0.54-0.26-1.05-0.38-1.52
					c-0.2-0.78-0.39-1.43-0.53-1.95c-0.09-0.31-0.17-0.58-0.23-0.78c-0.09-0.27-0.14-0.44-0.17-0.52c0,0-0.01,0-0.01-0.01
					C347.34,175.91,347.34,175.9,347.34,175.9s-1.16-0.62-2.43-2.07l0,0C346.18,175.29,347.34,175.9,347.34,175.9z"/>
				<polygon class="st6" points="397.34,171.58 395.23,163.73 395.23,171.58 				"/>
				<path class="st7" d="M345.24,135.82L345.24,135.82c1.4-0.86,2.95-1.73,4.64-2.6l0,0C348.19,134.09,346.65,134.96,345.24,135.82z
					"/>
				<path class="st2" d="M345.24,135.82c1.41-0.85,2.95-1.73,4.64-2.6c0.63-0.32,1.28-0.64,1.95-0.95c1.02-0.49,2.09-0.96,3.2-1.42
					c0.13-0.05,0.25-0.1,0.38-0.14c1.59-0.65,3.25-1.24,4.99-1.79l0.03,2.95c0,0,0,0.03,0.01,0.09c0.03,0.32,0.17,1.43,0.73,2.8
					c0.14,0.32,0.29,0.64,0.47,0.98c1.43,2.68,4.55,5.76,11.3,5.76c6.74,0,9.62-2.84,10.85-5.31c0.16-0.33,0.29-0.65,0.41-0.95
					c0.53-1.47,0.5-2.63,0.5-2.63v-0.07l0.04-2.76c1.55,0.57,3.03,1.19,4.42,1.83c1.21,0.55,2.36,1.13,3.44,1.71
					c0.43,0.23,0.84,0.46,1.24,0.7h0.01c0.3,0.17,0.59,0.34,0.88,0.51c1.68,1,3.18,1.99,4.48,2.92c4.01,2.89,6.15,5.19,6.15,5.19
					l-1.13,2.62c-0.22,0.36-0.42,0.72-0.6,1.07c-4.17,8.7,0.14,70.31,0.49,72.25c-0.79,7.36-60.69,6.68-63,0
					c0-0.01,2.34-40.17,0.88-62.61c-0.65-9.96-5.23-13.95-5.65-13.62C337.27,141.5,340.38,138.79,345.24,135.82z"/>
				<path class="st5" d="M384.74,129.77c-3.95-1.46-8.41-2.64-13.36-3.24l0,0l0,0c-3.93,0.48-7.61,1.32-10.99,2.38"/>
				<path class="st5" d="M371.39,126.53L371.39,126.53c4.94,0.6,9.41,1.78,13.36,3.24l0,0
					C380.79,128.31,376.33,127.13,371.39,126.53z"/>
				<path class="st5" d="M371.39,126.53c-3.93,0.48-7.61,1.32-10.99,2.38l0,0C363.78,127.85,367.45,127.01,371.39,126.53
					L371.39,126.53z"/>
				<path class="st8" d="M384.74,129.77l-0.05,2.83c0,0,0.18,8.89-11.76,8.89c-11.92,0-12.51-9.63-12.51-9.63l-0.03-2.95
					c3.38-1.06,7.06-1.9,10.99-2.38C376.33,127.13,380.79,128.31,384.74,129.77z"/>
				<path class="st2" d="M386.63,114.65l-0.03,1.86l-0.13,7.67l-0.01,0.46l-0.08,4.46l-0.06,3.5c0,0,0.04,1.73-1.03,3.67
					c-0.31,0.56-0.71,1.15-1.24,1.71c-1.75,1.87-4.85,3.51-10.36,3.51c-7.26,0-10.61-3.1-12.14-5.78c0-0.01-0.01-0.02-0.02-0.03
					c-1.15-2.03-1.27-3.82-1.27-3.82l-0.16-16.88l0.39-0.2l0.26-0.13l5.58,0.82l7.36,1.08l12.44-1.83L386.63,114.65z"/>
				<path class="st2" d="M351.84,394.7l11.04,0.06l1.74,0c14.45-28.38,17.96-67.77,17.58-111.08c0.22-7.16,1.83-50.06-8.33-56.51
					c-0.93-0.59,0.1-2.01,0.14-2.66c0.04-0.71,0.06-1.11,0.06-1.11l-0.08-0.02l-0.02,0l-29.81-5.14c0,0-0.2,0.64-0.53,1.83
					c-0.19,0.7-0.44,1.59-0.72,2.64c-1.8,6.8-5.07,20.65-6.51,36.33C325.05,382.44,351.84,394.7,351.84,394.7z"/>
				<path class="st2" d="M419.97,378.11c-0.82,6.63-2.07,7.59-2.07,7.59l-6.82,0.35l-8.46,0.43c0,0-8.73-5.28-21.83-58.35
					c-2.04-8.27-4.18-17.69-6.41-28.43v-0.02c-1.05-5.03-2.11-10.33-3.18-15.94c-1.48-7.66-3-15.87-4.52-24.7
					c-0.42-3.14-0.37-8.99-0.18-14.65c0.04-0.75,0.06-1.48,0.09-2.21c0.19-4.72,0.73-13.71,1.05-18.6l0.16-2.52
					c0.04-0.55,0.05-0.86,0.05-0.86l6.18,0.25l28.82,1.18c0.02,0.01,0.04,0.02,0.06,0.04c0.35,0.25,0.8,1.12,1.34,2.51
					C409.98,239.21,427.29,318.22,419.97,378.11z"/>
				<g>
					<g>
						<path class="st5" d="M365.46,113.92c0,0,1.05,2.49,3.28,4.14c0.2,0.16,0.44,0.31,0.67,0.45c0.97,0.57,2.13,0.97,3.49,0.98
							c1.61,0.01,2.95-0.53,4.02-1.27c0.22-0.15,0.43-0.31,0.62-0.47c1.94-1.6,2.86-3.74,2.86-3.74S373.4,116.06,365.46,113.92z"/>
					</g>
				</g>
			</g>
			<g>
				<path class="st9" d="M346.11,414.52c-0.01,0.08-0.01,0.16-0.02,0.25c-0.16,1.58-0.06,2.58-0.06,2.58
					c8.33,7.42,25.49,1.1,25.49,1.1s-0.01-0.35-0.01-0.88c-0.02-0.93-0.05-2.39-0.07-3.38c0-0.01,0-0.01,0-0.03
					c-0.02-1.53-6.47-15.01-6.49-15.04h-12.67C351.58,399.89,346.11,414.52,346.11,414.52z"/>
				<path class="st9" d="M346.09,414.77c-0.16,1.58-0.06,2.58-0.06,2.58c2.92,1.76,8.5,0.8,13.65,1.52
					c5.02,0.45,9.15-0.38,11.83-1.29c-0.02-0.93-0.05-2.39-0.07-3.38c-2.03-2.64-6.03-6.19-12.7-6.08
					C352.01,408.24,348.07,412.03,346.09,414.77z"/>
				<path class="st9" d="M345.76,417.83c12.62,8.11,25.74,0.63,25.74,0.63s-0.04-2.74-0.07-4.29c0,0-11.61,6.54-25.18,0.42
					c-0.05-0.03-0.11-0.05-0.16-0.07C345.76,417.83,345.76,417.83,345.76,417.83z"/>
			</g>
			<g>
				<path class="st9" d="M447.46,405.06l-46.59-0.43l2.68-13.95l14.51-1.9c0,0,8.64,2.27,16.18,5.56c0.01,0,0.02,0.01,0.03,0.01
					c0,0,0,0,0,0.01C441.21,397.38,448.95,400.1,447.46,405.06z"/>
				
					<rect x="400.85" y="404.21" transform="matrix(-1 -9.256703e-03 9.256703e-03 -1 844.6613 816.7247)" class="st9" width="46.73" height="4.4"/>
			</g>
		</g>
		<g>
			<g>
				<path class="st10" d="M394.87,99.64c0.46,15.4-7.6,28.13-17.98,28.44c-10.39,0.31-19.18-11.93-19.64-27.32
					c-0.46-15.4,7.6-28.13,17.98-28.44C385.62,72.01,394.41,84.24,394.87,99.64z"/>
				<g>
					<g>
						<g>
							<path class="st11" d="M364.12,107.37c-0.04,0.31-0.84,0.48-1.79,0.38c-0.95-0.11-1.7-0.45-1.66-0.76
								c0.04-0.31,0.84-0.48,1.79-0.38C363.41,106.72,364.15,107.06,364.12,107.37z"/>
							<path class="st11" d="M364.34,109.25c-0.05-0.31-0.86-0.43-1.81-0.27c-0.95,0.16-1.67,0.55-1.62,0.86
								c0.05,0.31,0.86,0.43,1.81,0.27C363.67,109.94,364.39,109.56,364.34,109.25z"/>
						</g>
						<g>
							<path class="st11" d="M388.46,108.53c0.04-0.31,0.84-0.48,1.79-0.38c0.95,0.11,1.7,0.45,1.66,0.76
								c-0.04,0.31-0.84,0.48-1.79,0.38C389.17,109.19,388.43,108.85,388.46,108.53z"/>
							<path class="st11" d="M388.24,106.66c0.05,0.31,0.86,0.43,1.81,0.27c0.95-0.16,1.67-0.55,1.62-0.86
								c-0.05-0.31-0.86-0.43-1.81-0.27C388.91,105.96,388.19,106.35,388.24,106.66z"/>
						</g>
					</g>
					<g>
						<g>
							<path class="st11" d="M377.45,112.02c0.04,0,0.08,0,0.12-0.01c0.49-0.06,1.63-0.51,1.66-3.47c0.05-4.84-0.82-7.49-0.85-7.61
								c-0.06-0.17-0.24-0.26-0.41-0.21c-0.17,0.06-0.26,0.24-0.21,0.41c0.01,0.03,0.87,2.67,0.82,7.39
								c-0.02,1.99-0.57,2.77-1.09,2.83c-0.75,0.1-1.93-1.15-2.48-3.33c-0.04-0.17-0.22-0.28-0.4-0.24
								c-0.18,0.04-0.28,0.22-0.24,0.4C374.96,110.48,376.24,112.06,377.45,112.02z"/>
						</g>
						<g>
							<path class="st11" d="M376.95,116.97c-4.97,0.15-8.08-3.58-8.21-3.74c-0.11-0.14-0.09-0.35,0.05-0.46
								c0.14-0.12,0.35-0.09,0.46,0.05c0.03,0.04,3.04,3.64,7.68,3.5c4.63-0.14,6.75-3.86,6.77-3.9c0.09-0.16,0.29-0.21,0.45-0.13
								c0.16,0.09,0.21,0.29,0.13,0.45C384.18,112.91,381.95,116.83,376.95,116.97z"/>
						</g>
						<g>
							<g>
								<path class="st12" d="M386.46,96.98c-1.07-0.35-2.27-0.18-3.59,0.49c-0.46,0.24-1.02,0.06-1.25-0.4
									c-0.23-0.46-0.05-1.02,0.4-1.25c1.78-0.91,3.47-1.11,5.04-0.6c2.46,0.81,3.71,4.25,3.25,4.48
									C390.21,99.75,388.16,97.54,386.46,96.98z"/>
							</g>
							<g>
								<path class="st12" d="M363.3,100.7c-0.49-0.17,0.31-3.74,2.64-4.86c1.48-0.71,3.19-0.73,5.07-0.05
									c0.48,0.17,0.73,0.71,0.56,1.19c-0.17,0.48-0.71,0.74-1.19,0.56c-1.39-0.5-2.62-0.51-3.63-0.02
									C365.14,98.29,363.39,100.73,363.3,100.7z"/>
							</g>
						</g>
					</g>
					<path class="st12" d="M381.69,103.46c0,1.72,0.49,3.12,1.1,3.12c0.61,0,1.1-1.4,1.1-3.12s-0.49-3.12-1.1-3.12
						C382.18,100.33,381.69,101.73,381.69,103.46z"/>
					<path class="st12" d="M367.75,103.46c0,1.72,0.49,3.12,1.1,3.12c0.61,0,1.1-1.4,1.1-3.12s-0.49-3.12-1.1-3.12
						C368.24,100.33,367.75,101.73,367.75,103.46z"/>
				</g>
			</g>
			<g>
				<g>
					<polygon class="st13" points="357.19,102.51 364.77,110.3 364.97,109.73 356.4,101.12 					"/>
					<polygon class="st13" points="357.36,110.77 364.02,118.97 363.52,119.21 356.88,110.87 					"/>
					<polygon class="st13" points="393.9,102.96 388.57,110.82 388.3,110.28 392.62,104.32 					"/>
					<polygon class="st13" points="391.78,112.74 389.13,119.4 389.65,119.6 392.26,112.87 					"/>
					<path class="st13" d="M389.08,109.84c0,0-7.38-1.81-11.52-2.28c0,0-0.53-0.09-0.81-0.08c-0.28-0.02-0.81,0.06-0.81,0.06
						c-4.15,0.36-11.57,1.98-11.57,1.98c1.57,6.61-0.85,9.69-0.85,9.69c4.11,8.69,8.77,9.86,12.29,10.2
						c2.15,0.26,8.88-1.09,13.86-9.86C389.67,119.55,387.33,116.41,389.08,109.84z"/>
				</g>
				<g>
					<path class="st14" d="M367.64,113.02c1.46-0.34,2.93-0.63,4.4-0.89c1.48-0.25,2.94-0.5,4.48-0.59c1.53,0.1,2.99,0.36,4.47,0.61
						c1.47,0.26,2.94,0.54,4.4,0.88c-1.49-0.17-2.97-0.37-4.45-0.57c-1.48-0.18-2.97-0.44-4.43-0.51c-1.45,0.05-2.95,0.31-4.43,0.49
						C370.61,112.65,369.12,112.85,367.64,113.02z"/>
					<path class="st14" d="M385.3,120.41c-1.46,0.34-2.93,0.63-4.4,0.89c-1.48,0.25-2.94,0.5-4.48,0.59
						c-1.53-0.1-2.99-0.36-4.47-0.61c-1.47-0.26-2.94-0.54-4.4-0.88c1.49,0.17,2.97,0.37,4.45,0.57c1.48,0.18,2.97,0.44,4.43,0.51
						c1.45-0.05,2.95-0.31,4.43-0.49C382.33,120.79,383.81,120.58,385.3,120.41z"/>
					<path class="st14" d="M368.26,116.55c2.85-0.13,5.7-0.11,8.54-0.1c2.85,0.06,5.69,0.11,8.54,0.32c-2.85,0.14-5.7,0.11-8.54,0.1
						C373.96,116.81,371.11,116.76,368.26,116.55z"/>
				</g>
			</g>
			<path class="st2" d="M393.3,133.1c0.17,0.32,0.35,0.63,0.55,0.91h-0.01l-8.14,2.17l-0.41,0.09l-0.99,0.22l0.09-1.02l0.02-0.27
				l0.21-2.38l0.03-0.28l0.12-4l0.08-2.91c0.57-0.42,1.11-0.9,1.62-1.45c5.97-6.31,8.37-20.64,3.75-28.74
				c-5.02-8.8-14.57-7.35-14.57-7.35s-9.54-1.45-14.55,7.35c-1.08,1.89-1.73,4.16-2,6.6c-0.48,4.1,0.1,8.68,1.39,12.74
				c1.5,4.72,3.98,8.74,6.91,10.47l-0.64,7.46l0.01,0.25l0.16,2.35l0.01,0.07l0.06,0.86l0.02,0.25l-5.39-0.76l-0.08-0.02l-0.28-0.06
				l-11.03-2.35c-0.18-0.03-0.31-0.05-0.37-0.07c0.05-0.12,0.1-0.25,0.15-0.39v-0.01c0.2-0.55,0.42-1.34,0.65-2.28
				c1.09-4.38,2.4-12.23,2.14-17.07c-0.15-2.85-0.87-6.04-1.56-9.39c-0.42-1.99-0.81-4.04-1.07-6.1c-0.27-1.98-0.4-3.97-0.31-5.96
				c0.34-6.96,2.68-11.55,5.78-14.59c7.11-6.95,18.21-5.66,18.29-5.66c0.11,0,21.69-1.95,22.8,20.96c0.36,7.6-2.26,13.6-3.44,19.29
				c0,0-1.53,6.56-1.53,12.48c0,2.16,0.17,4.32,0.65,6.18v0.02C392.64,131.58,392.92,132.39,393.3,133.1z"/>
			<path class="st15" d="M390.7,133.22l-40.46,0.08c-0.18-0.03-0.31-0.05-0.37-0.07c0.05-0.12,0.1-0.25,0.15-0.39v-0.01
				c0.2-0.55,0.42-1.34,0.65-2.28c1.09-4.38,2.4-12.23,2.14-17.07c-0.15-2.85-0.87-6.04-1.56-9.39c-0.42-1.99-0.81-4.04-1.07-6.1
				c-0.27-1.98-0.4-3.97-0.31-5.96c0.34-6.96,2.68-11.55,5.78-14.59c-0.18,6.42-0.87,38.21,4.75,47.77
				c3.51,5.97,29.88,5.06,32.02,5.49v0.01c0.22,0.87,0.5,1.68,0.88,2.39C393.47,133.42,390.7,133.22,390.7,133.22z"/>
			<path class="st3" d="M356.39,97.99v6.1h-5.14c-0.42-1.99-0.82-4.04-1.08-6.1H356.39z"/>
			<g>
				<path class="st16" d="M397.13,99.64c-0.06,8.14-8.63,10.1-13.3,10.56c-1.75,0.18-2.95,0.14-2.95,0.14s-0.15-1.55-0.89-2.85
					c-0.57-1.01-1.48-1.88-2.95-1.78c-0.07,0-0.14,0.02-0.21,0.03c-0.89,0.22-1.65,1.37-2.17,2.46l-0.01,0.02
					c-0.5,1.03-0.79,2-0.79,2s-0.37,0.01-0.99,0c-1.95-0.04-6.41-0.33-10.17-2.03c-3.31-1.5-6.08-4.09-6.15-8.55
					c-0.09-5.75,10.66-8.54,21.11-8.37c3.81,0.05,7.58,0.5,10.77,1.35c1.32,0.34,2.54,0.76,3.62,1.24c1.66,0.73,2.99,1.62,3.87,2.67
					C396.71,97.44,397.14,98.48,397.13,99.64z"/>
				<g>
					<path class="st17" d="M388.43,92.62l-11.6,13.12l-2.17,2.46l-0.01,0.02l-1.78,2c-1.95-0.04-6.41-0.33-10.17-2.03l14.96-16.92
						C381.47,91.32,385.24,91.77,388.43,92.62z"/>
					<path class="st17" d="M395.92,96.53l-12.09,13.67c-1.75,0.18-2.95,0.14-2.95,0.14s-0.15-1.55-0.89-2.85l12.06-13.63
						C393.71,94.59,395.04,95.48,395.92,96.53z"/>
				</g>
				<g>
					<path class="st18" d="M376.81,91.26c10.18,0,20.36,2.79,20.32,8.39c-0.08,10.29-13.78,10.7-15.95,10.7c-0.19,0-0.29,0-0.29,0
						s-0.46-4.64-3.62-4.64c-0.07,0-0.14,0-0.22,0.01c-1.86,0.12-3.19,4.51-3.19,4.51s-0.16,0.01-0.45,0.01
						c-2.71,0-16.69-0.49-16.85-10.59C356.47,94.05,366.63,91.26,376.81,91.26 M376.81,89.26c-13.69,0-18.88,4.19-20.15,5.48
						c-1.41,1.43-2.13,3.14-2.11,4.94c0.08,5.11,3.12,8.89,8.79,10.93c4.08,1.47,8.4,1.62,10.06,1.62c0.34,0,0.52-0.01,0.52-0.01
						c0.85-0.03,1.6-0.6,1.84-1.42c0.39-1.27,1.12-2.7,1.56-3.09c1.17,0.11,1.55,2.8,1.56,2.83c0.1,1,0.93,1.77,1.93,1.8
						c0,0,0.12,0,0.35,0c8.24,0,17.88-3.32,17.95-12.69c0.01-1.8-0.73-3.51-2.14-4.93C395.71,93.44,390.49,89.26,376.81,89.26
						L376.81,89.26z"/>
				</g>
			</g>
		</g>
		<g>
			<g>
				<path class="st3" d="M349.88,133.22c0.06,0.02,0.18,0.05,0.36,0.08c1.72,0.3,8.42,0.98,10.92,1.45l5.77,0.55l7.24,0.69
					c2.64,0,5.41-0.15,8.3-0.53c0.56-0.08,1.14-0.15,1.72-0.24c0.07-0.01,0.14-0.02,0.21-0.04c2.67-0.42,5.41-1.03,8.19-1.88
					c0.23-0.07,0.47-0.13,0.7-0.21c-0.37-0.72-0.66-1.53-0.88-2.4c-0.01,0-0.01,0-0.01,0c-1.09,0.33-2.18,0.63-3.25,0.9
					c-1.51,0.37-2.99,0.68-4.46,0.93c-0.02,0-0.03,0.01-0.05,0.01c-0.65,0.11-1.31,0.21-1.94,0.29c-5.84,0.78-11.27,0.67-15.94,0.14
					c-0.66-0.08-1.3-0.16-1.93-0.25c-1.27-0.18-10.11-1.52-14.17-2.17c-0.23,0.95-0.45,1.73-0.65,2.29v0.01
					C350.07,133.01,350.04,133.15,349.88,133.22z"/>
				<path class="st3" d="M342,222.96c4.16,0.61,12.32,1.55,24.86,1.88c2,0.05,4.1,0.1,6.32,0.11c0.13,0.01,0.28,0.01,0.41,0.01
					c21.77,0.16,24.72-0.96,29.83-1.78c-0.63-1.37-1.13-2.2-1.49-2.43c-6.43,0.75-16.31,1.61-28.08,1.65h-0.72
					c-2.04,0-4.13-0.02-6.28-0.08c-0.09-0.01-0.18-0.01-0.27-0.01c-7.55-0.2-15.69-0.77-24.06-1.93
					C342.4,221.05,342.21,221.92,342,222.96z"/>
			</g>
		</g>
		<g>
			<path class="st2" d="M424.54,195.36c-1.5,1.77-4.98,2.97-8.83,2.58c-0.12,0-0.23-0.01-0.35-0.03c-2.41-0.3-4.94-1.22-7.22-3.02
				c-1-2.8-2.05-5.84-3.11-9.04c-0.61-1.82-1.21-3.71-1.83-5.61c-1.66-5.21-3.27-10.65-4.71-15.97c-4.29-22.1,0.53-25.35,6.12-22.39
				c3.47,1.84,7.28,6.49,9.28,9.21c0.04,0.09,0.07,0.18,0.11,0.27c0.07,0.16,0.14,0.33,0.21,0.49c5.45,12.96,8.11,20.01,9.41,30.85
				c0.27,2.27,0.49,4.69,0.66,7.39C424.38,191.73,424.46,193.49,424.54,195.36z"/>
			<path class="st15" d="M415.7,197.94c-0.12,0-5.29-1.25-7.57-3.05c-1-2.8-2.05-5.84-3.11-9.04c-0.61-1.82-1.21-3.71-1.83-5.61
				c5.86-8.78-0.78-24.32-3.22-35.53c0.07,0.16,10.34,17.74,12.11,35.57C412.96,189.03,419.35,198.1,415.7,197.94z"/>
		</g>
		<path class="st15" d="M358.44,187.1l-8.33-37.11c0,0,6.26,27.99,12.86,30.22c6.6,2.23,9.07,3.41,9.07,3.41l-13.32,6.15l-0.09-2.22
			"/>
		<g>
			<g>
				<g>
					<path class="st3" d="M391.68,176.61c0,0,10.53-1.16,12.73-0.76c3.32,0.8,7.49,4.69,8.19,5.23c1.27,1.45,2.48,5.75,2.27,6.97
						c0.2,1.75-0.64,3.75-2.16,1.97c-1.59-3-2.99-6.59-2.99-6.59l-4.14-3.02c0,0,2.82,2.49,3.52,3.43c0.7,0.94,2.08,9.18,1.48,10.21
						c-0.61,1.03-2.71,0.19-2.96-1.77c0,0,0.05,1.95-0.55,2.41c-0.6,0.46-1.34,0.15-1.99-2.37c0,0-0.54,1.58-1.35,1.64
						c-1.66-0.12-2.24-5.61-2.57-5.95c-0.33-0.34-5.56,2.02-8.56-4.05C389.08,178.71,391.68,176.61,391.68,176.61z"/>
					<path class="st19" d="M407.61,192.28c0.02-1.11-0.13-2.19-0.3-3.26c-0.22-1.05-0.42-2.13-0.91-3.08
						C406.76,188.07,407.04,190.2,407.61,192.28z"/>
					<path class="st19" d="M405.07,192.32c0.01-0.92-0.16-1.79-0.34-2.65c-0.23-0.85-0.46-1.71-0.93-2.44
						C404.15,188.97,404.48,190.66,405.07,192.32z"/>
				</g>
			</g>
			<path class="st4" d="M411.07,202.58c-0.27-0.01-0.54-0.04-0.81-0.07c-8.09-0.9-46.11-10.5-46.11-10.5l-0.1-2.17l-0.23-4.69
				l5.61-1.47c0,0,13.05-0.07,31.73,1.97c1.34,0.02,2.62,0.09,3.87,0.2c8.44,0.75,14.79,3.36,17.74,6.35
				c1.02,1.03,1.63,2.11,1.78,3.16C425.16,199.79,418.8,203.18,411.07,202.58z"/>
			<path class="st2" d="M411.07,202.58c-0.27-0.01-0.54-0.04-0.81-0.07c-8.09-0.9-46.11-10.5-46.11-10.5l-0.1-2.17l-0.23-4.69
				l5.61-1.47c0,0,13.16-1.36,31.84,0.67c15.76,1.58,18.8,4.85,21.74,7.84c1.02,1.03,1.39,2.11,1.54,3.16
				C425.16,199.79,418.8,203.18,411.07,202.58z"/>
			<path class="st15" d="M411.07,202.58c-0.27-0.01-0.54-0.04-0.81-0.07c-8.09-0.9-46.11-10.5-46.11-10.5l-0.1-2.17
				c6.53,2,13.04,4.1,19.76,5.49c10.28,2.14,20.68,4.37,31.04,2.68c0.16-0.03,0.34-0.08,0.51-0.11c8.2-1.66,8.66-7.08,8.93-7.83
				c0.07,0.07-0.08-0.09,0,0c0.1,1.66,0.18,3.42,0.26,5.29C425.16,199.79,418.8,203.18,411.07,202.58z"/>
			<g>
				<g>
					<path class="st2" d="M330.84,163.88c4.74,18.72,7.85,25.33,19.29,41.96c3.84,1.09,10.16-1.82,12.22-8.94
						c-2.77-8.88-5.56-20.63-9.71-30.93c-7.96-16.33-13.06-25.2-16.28-23.62C333.06,143.96,329.21,153.21,330.84,163.88z"/>
				</g>
			</g>
			<path class="st15" d="M357.32,205.31c-2.18,0.78-10.54-8.26-10.92-13.11c-12.42-30.3-10.04-47.49-10.04-49.85
				c0-0.85-8.14,7.29-5.51,21.53c4.66,18.41,7.75,25.11,18.73,41.15c0.15,0.27,0.32,0.53,0.53,0.77c0.01,0.01,0.01,0.02,0.02,0.03
				c0,0,0,0,0,0c2.35,2.69,8,3.07,13.49,0.46c6.74-3.21,33.23-21.55,33.23-21.55S373.1,199.45,357.32,205.31z"/>
			<g>
				<path class="st3" d="M372.03,189.46c0,0-4.2-9.7-5.66-11.54c-2.4-2.69-8.28-4.88-9.15-5.29c-2.05-0.56-6.87,0.12-7.98,0.82
					c-1.82,0.54-3.38,2.13-0.89,2.78c3.73,0.21,7.96-0.01,7.96-0.01l5,2.52c0,0-3.83-1.54-5.1-1.78c-1.27-0.24-10.06,1.9-10.78,2.88
					c-0.72,0.98,1.13,2.54,3.19,1.97c0,0-1.94,0.75-2.1,1.49c-0.16,0.74,0.51,1.28,3.31,0.83c0,0-1.29,1.15-0.95,1.9
					c0.93,1.46,6.62-0.28,7.12-0.12c0.5,0.16,0.73,5.89,8.17,6.11C371.03,193.04,372.03,189.46,372.03,189.46z"/>
				<path class="st20" d="M357.44,184.48c-0.41,0.12-4.8,1.96-8.58,1.54c0.93,1.46,6.62-0.28,7.12-0.12
					c0.5,0.16,0.73,5.89,8.17,6.11c2.64,0.39,7.77-3.41,8.95-3.91C362.58,189.18,360.28,191.22,357.44,184.48z"/>
				<path class="st20" d="M348.61,181.8c1.09-0.48,2.22-0.78,3.36-1.08c1.14-0.24,2.31-0.5,3.48-0.44
					C353.17,180.83,350.94,181.46,348.61,181.8z"/>
				<path class="st20" d="M349.82,184.12c0.9-0.38,1.84-0.59,2.78-0.79c0.94-0.14,1.91-0.29,2.85-0.16
					C353.57,183.57,351.74,183.97,349.82,184.12z"/>
			</g>
			<path class="st2" d="M398.05,177.82c-2.76-2.89-6.32-2.71-6.32-2.71s-11.27,1.19-26.83,8.56c-11.59,4.14-16.67,15.44-15.83,19.98
				c0.84,4.54,7.81,5.85,14.54,2.64c6.74-3.21,36.36-21.81,36.36-21.81S401.12,181.03,398.05,177.82z"/>
			<path class="st15" d="M357.32,205.31c-1.27,0.45-4.98-3.01-7.64-6.46c-0.83,1.54-0.83,3.57-0.6,4.81c0.09,0.5,0.27,0.95,0.5,1.37
				c0,0,0,0,0,0c0.06,0.12,0.14,0.23,0.21,0.34c0.1,0.15,0.2,0.29,0.32,0.43c0,0,0,0,0,0c0,0,0,0,0,0c0.01,0.01,0.02,0.02,0.02,0.03
				h0c0.06,0.06,0.12,0.12,0.18,0.18c0.12,0.12,0.23,0.24,0.36,0.34c0.09,0.07,0.18,0.14,0.27,0.21c0.12,0.09,0.24,0.17,0.37,0.26
				c0.1,0.06,0.2,0.13,0.31,0.18c0.14,0.08,0.28,0.15,0.43,0.21c0.11,0.05,0.21,0.1,0.32,0.15c0.19,0.08,0.38,0.14,0.58,0.21
				c0.08,0.03,0.16,0.06,0.24,0.08c0.28,0.08,0.56,0.15,0.86,0.2c0.11,0.02,0.23,0.04,0.35,0.05c0.2,0.03,0.4,0.06,0.61,0.08
				c0.13,0.01,0.26,0.02,0.4,0.03c0.21,0.01,0.42,0.02,0.63,0.03c0.13,0,0.26,0.01,0.4,0c0.24,0,0.49-0.01,0.74-0.03
				c0.11-0.01,0.21-0.01,0.32-0.02c0.36-0.03,0.72-0.07,1.08-0.13c0.09-0.01,0.18-0.03,0.26-0.05c0.29-0.05,0.57-0.11,0.86-0.17
				c0.13-0.03,0.26-0.07,0.4-0.1c0.25-0.06,0.51-0.13,0.76-0.21c0.14-0.04,0.28-0.08,0.42-0.13c0.27-0.09,0.53-0.18,0.8-0.28
				c0.12-0.05,0.25-0.09,0.37-0.14c0.39-0.15,0.78-0.32,1.16-0.51c4.52-2.15,21.16-11.98,30.41-18.42
				C386.32,192.43,368.8,201.05,357.32,205.31z"/>
		</g>
		<path class="st15" d="M416.94,385.7l-6.82,0.35l-8.46,0.43c0,0-8.73-5.28-21.83-58.35v-0.03l0.91-75.61
			C385.07,307.85,394.75,355.63,416.94,385.7z"/>
	</g>
	<g>
		<g>
			<path class="st4" d="M96.11,364.36l-0.46-47.48c-1.85-2.16-3.19-4.7-3.73-7.49c-1.52-7.88-3.31-16-2.77-24.06
				c0.31-4.62,1.84-8.84,4.37-12.22c-1.05-5.02-2.09-10.05-3.06-15.09c-1.42-7.39-2.15-14.89-4.09-22.18
				c-0.67-2.54-0.84-5.06-0.56-7.47l-4.97,12.44l-0.17,2.48l-5.04,72.12l7.25,64.19l1.48,13.2c5.32,0.58,6.69-0.21,12.02,0.01
				l-0.13-13.21L96.11,364.36z"/>
			<g>
				<path class="st21" d="M56.94,399.58h42.43l-2.59-13.64c0,0-4.73,5.13-8.34,3.44c-3.61-1.24-5.49-4.95-5.49-4.95
					s-6.98,3.07-13.88,5.89c-0.01,0-0.02,0.01-0.03,0.01c0,0,0,0,0,0.01C62.7,392.92,55.63,395.24,56.94,399.58z"/>
				<path class="st22" d="M56.94,399.58h15.65l0.73-0.55c0,0-0.93-5.17-4.25-8.71c-0.01,0-0.02,0.01-0.03,0.01c0,0,0,0,0,0.01
					C62.7,392.92,55.63,395.24,56.94,399.58z"/>
				<rect x="56.82" y="399.03" class="st23" width="42.56" height="3.85"/>
			</g>
		</g>
		<g>
			<path class="st4" d="M132.26,378.99l-0.46-47.48c-1.85-2.16-3.19-4.7-3.73-7.49c-1.52-7.88-3.31-16-2.77-24.05
				c0.31-4.62,1.84-8.84,4.37-12.22c-1.05-5.02-2.09-10.05-3.06-15.09c-1.42-7.39-2.15-14.89-4.09-22.18
				c-0.67-2.54-0.84-5.06-0.56-7.47l-4.97,12.44l-0.17,2.48l-5.04,72.12l7.25,64.19l1.48,13.2c5.32,0.58,6.69-0.21,12.02,0.01
				l-0.13-13.21L132.26,378.99z"/>
			<g>
				<path class="st21" d="M93.09,414.21h42.43l-2.59-13.64c0,0-4.73,5.13-8.34,3.44c-3.61-1.24-5.49-4.95-5.49-4.95
					s-6.98,3.07-13.88,5.89c-0.01,0-0.02,0.01-0.03,0.01c0,0,0,0,0,0.01C98.85,407.55,91.78,409.87,93.09,414.21z"/>
				<path class="st22" d="M93.09,414.21h15.65l0.73-0.55c0,0-0.93-5.17-4.25-8.71c-0.01,0-0.02,0.01-0.03,0.01c0,0,0,0,0,0.01
					C98.85,407.55,91.78,409.87,93.09,414.21z"/>
				<rect x="92.97" y="413.65" class="st23" width="42.56" height="3.85"/>
			</g>
		</g>
		<g>
			<polygon class="st23" points="135.62,392.01 114.51,393.89 99.77,253.47 99.64,293.43 99.38,378.45 96.24,378.31 78.81,377.55 
				72.9,222.15 128.99,221.46 			"/>
			<path class="st24" d="M99.64,293.43l-0.27,85.03l-3.14-0.14c0,0-0.21-8.32-1.58-21.57c-1.37-13.25-9.42-49.07-9.42-49.07
				l4.09-25.89l10.05,6.63L99.64,293.43z"/>
		</g>
		<path class="st21" d="M146.99,327.49c-6.84,3.7-15.07,5.69-22.92,6.72c-14.93,1.94-28.49,0.37-28.49,0.37l-7.43-40.57l-2.78,40.2
			c-6.52,0.95-12.33,0.57-16.82-3.29l-0.09-156.17l-2.38-33.87c0,0,14.59-15.15,32.76-18.45c6.07,0.44,11.05,0.51,15.66,1.69
			c18.81,4.82,26.29,14.98,26.29,14.98s-1.7,26.84-7.5,42.36c-0.13,0.34-0.21,0.95-0.26,1.79c-0.05,0.99-0.04,2.29,0.02,3.86v0.06
			c0.05,0.98,0.11,2.06,0.18,3.24c0,0,0.01,0.05,0.02,0.16c0.03,0.37,0.05,0.75,0.07,1.14c0.05,0.71,0.11,1.45,0.17,2.23
			C135.86,224.82,147.13,327.42,146.99,327.49z"/>
		<path class="st24" d="M124.06,334.21c0,0,12.64-33.45,5.1-72.07c-0.95-4.87,3.42-5.49,3.37-10.89
			c-0.18-20.24-6.78-39.23-10.38-64.53c-4.31-30.32,7.61-42.57,7.93-43.48c-0.04,0.19-0.25,1.45-1.63,9.49
			c-1.21,6.98,0.64,23.08,1.3,30.54c0.21,2.39,2.81,3.9,3.24,3.93c-0.04,0.31,0.05,1.43,0.22,3.23c0,0,0.01,0.05,0.02,0.16
			c0.03,0.37,0.05,0.75,0.07,1.14c0.05,0.71,0.11,1.45,0.17,2.23c2.38,30.86,13.64,133.46,13.5,133.53
			C140.15,331.19,131.92,333.19,124.06,334.21z"/>
		<g>
			<path class="st4" d="M131.94,238.55c0,0,28.98-26.86,29.78-32.56c0.8-5.7-9.65-29.87-9.65-29.87l-16.66,0.59l11.08,27.93
				l-20.31,25.81C125.06,237.4,127.24,239.74,131.94,238.55z"/>
			<path class="st23" d="M126.44,230.11c0,0-14.08,6.55-14.02,8.55c0.06,2.01,3.6,0.93,6.16-0.38c0,0-3.66,10.34-2.51,14.16
				c0.48,1.61,3.62,0.99,4.43-1.53c0,0,9.97-3.93,11.44-12.34C127.31,237.21,127.2,232.79,126.44,230.11z"/>
			<path class="st21" d="M141.59,139.33c0,0,24.57,60.97,23.42,66.19c-1.15,5.23-27.33,34.66-27.33,34.66l-12.55-14.75l14.72-23.55
				l-13.69-23.74C126.16,178.15,120.09,142.47,141.59,139.33z"/>
		</g>
		<g>
			<path class="st23" d="M71.1,229.07c0,0,13.99,10.12,14.14,12.12c0.15,2-4.58-0.24-6.56-1.21c0,0,3.97,7.14,3.17,13.7
				c-0.2,1.66-2.52,1.46-3.35-0.94c0,0-6.92-1.97-8.1-3.88c-2.6-3.22-3.26-6.94-4.33-12.46C66.52,232.73,67.82,229.22,71.1,229.07z"
				/>
			<path class="st4" d="M66.08,235.53c0,0-17.37-22.9-17.71-28.63c-0.35-5.73,8.26-29.27,8.26-29.27l12.11,1.53l-9.21,27.26
				l11.56,22.67C68.26,230.31,66.58,232.44,66.08,235.53z"/>
			<path class="st21" d="M66.08,140.88c0,0-20.72,60.08-20.1,65.37c0.62,5.29,15.31,31.66,15.31,31.66l9.66-16.58l-6.5-17.3
				l10.94-22.93C75.39,181.11,81.6,145.23,66.08,140.88z"/>
		</g>
		<path class="st21" d="M74.19,227.58c-4.42,4.71-7.41,12.45-4.48,25.9l15.5,10.79l1.39-32.86L74.19,227.58z"/>
		<path class="st21" d="M122.8,229.41c-3.95,4.62-1.65,10.85,5.36,23.63l-12.57,16.24l-4.48-36.65L122.8,229.41z"/>
		<path class="st24" d="M70.4,248.86c0,0,1.76,5.05,14.84,8.48c13.08,3.43,37.76,5.83,37.76,5.83s-29.86,3.01-37.78,1.1
			C77.29,262.37,70.4,248.86,70.4,248.86z"/>
		<path class="st24" d="M133.36,143.2c0,0,0,0-0.01,0.03C133.36,143.21,133.36,143.2,133.36,143.2z"/>
		<path class="st24" d="M133.04,187.19c-0.01,0.01-0.02,0.01-0.04,0.01c0.01-0.07,0.02-0.1,0.04-0.07h0.01
			C133.07,187.16,133.07,187.19,133.04,187.19z"/>
		<path class="st25" d="M87.91,289.37l0.18-17.22l0.05-17.22l-0.12-34.45c0,0-0.48-6.99-0.42-34.44
			c0.06-27.45,4.65-49.24,4.65-49.24s-5.04,18-5.6,32.02c-0.57,14.02-0.05,17.22-0.05,17.22l0.12,34.44l0.42,34.44l0.31,17.22
			L87.91,289.37z"/>
		<path class="st24" d="M139.85,201.89l-4.54-8.06c3.08,3.24,3.98,3.76,5.8,2.42c5.38-3.95,11.92,0.07,17.55,3.44
			C148.12,196.73,141.88,197.7,139.85,201.89z"/>
		<path class="st24" d="M69.98,150.62l-1.41,44.77l-4.12,8.64l7.77,19.41c0,0-5.51-15.38-12.7-17.03c-7.2-1.65-7.2-1.65-7.2-1.65
			l7.97-0.82L69.98,150.62z"/>
		<g>
			<path class="st23" d="M114.49,124.13c-1.45,7.98-14.84,13.28-21.54,12.67c-5.29-0.48-4.69-4.92-3.33-12.78
				c0.02-0.08,0.03-0.17,0.04-0.25c0.1-0.66,0.07-3.82,0.02-6.15c-0.03-1.44-0.06-2.55-0.06-2.55l10.16,1.61l12.47-11.75
				c0,0-0.1,0.9-0.17,2.27c-0.12,1.96-0.22,4.88,0.03,7.49c0.14,1.45,0.45,2.98,0.8,4.37C113.62,121.87,114.49,124.13,114.49,124.13
				z"/>
			<path class="st24" d="M112.92,119.05c-9.2,23.7-22.44,10.39-23.3,6.62v-8.07l0.06,0.01l10.09,1.6l12.31-12.03
				C111.95,109.15,112.66,116.44,112.92,119.05z"/>
		</g>
		<g>
			<g>
				<path class="st4" d="M117.26,93.4c0.15,4.97-1.5,18.18-1.94,20.45c-0.45,2.27-7.43,12.6-9.43,12.79
					c-1.99,0.19-8.45,1.24-10.92-0.1s-10.24-11.09-10.8-12.96c-0.56-1.87-1.78-14.42-1.92-19.14c-0.42-14.33,7.07-20.57,16.73-20.85
					C108.65,73.3,116.83,79.07,117.26,93.4z"/>
				<path class="st26" d="M105.89,102.17c0,1.39,0.46,2.51,1.03,2.51c0.57,0,1.03-1.12,1.03-2.51s-0.46-2.51-1.03-2.51
					C106.34,99.66,105.89,100.78,105.89,102.17z"/>
				<path class="st26" d="M92.91,102.17c0,1.39,0.46,2.51,1.03,2.51c0.57,0,1.03-1.12,1.03-2.51s-0.46-2.51-1.03-2.51
					C93.37,99.66,92.91,100.78,92.91,102.17z"/>
				<g>
					<g>
						<g>
							<path class="st27" d="M88.64,106.21c-0.03,0.29-0.78,0.45-1.67,0.35c-0.89-0.1-1.58-0.42-1.55-0.71
								c0.03-0.29,0.78-0.45,1.67-0.35C87.98,105.6,88.68,105.92,88.64,106.21z"/>
							<path class="st27" d="M88.85,107.95c-0.05-0.29-0.8-0.4-1.68-0.25c-0.88,0.15-1.55,0.51-1.5,0.8c0.05,0.29,0.8,0.4,1.68,0.25
								C88.22,108.6,88.9,108.24,88.85,107.95z"/>
						</g>
						<g>
							<path class="st27" d="M111.3,107.29c0.03-0.29,0.78-0.45,1.67-0.35c0.89,0.1,1.58,0.42,1.55,0.71
								c-0.03,0.29-0.78,0.45-1.67,0.35C111.96,107.9,111.26,107.58,111.3,107.29z"/>
							<path class="st27" d="M111.09,105.55c0.05,0.29,0.8,0.4,1.68,0.25c0.88-0.15,1.55-0.51,1.5-0.8c-0.05-0.29-0.8-0.4-1.68-0.25
								C111.72,104.9,111.04,105.26,111.09,105.55z"/>
						</g>
					</g>
					<g>
						<g>
							<path class="st27" d="M100.63,110.13c-0.04,0-0.07,0-0.11,0c-0.46-0.03-1.55-0.39-1.74-3.13c-0.32-4.5,0.34-7.01,0.36-7.11
								c0.04-0.16,0.21-0.26,0.37-0.22c0.16,0.04,0.26,0.21,0.22,0.37c-0.01,0.02-0.66,2.53-0.34,6.91
								c0.13,1.85,0.69,2.54,1.17,2.57c0.7,0.05,1.73-1.18,2.11-3.23c0.03-0.16,0.19-0.27,0.36-0.24c0.17,0.03,0.27,0.19,0.24,0.36
								C102.86,108.56,101.76,110.1,100.63,110.13z"/>
						</g>
						<g>
							<path class="st27" d="M101.61,117.84c-4.27,0.13-6.94-3.08-7.05-3.21c-0.1-0.12-0.08-0.3,0.04-0.39
								c0.12-0.1,0.3-0.08,0.4,0.04c0.03,0.03,2.61,3.12,6.6,3.01c3.98-0.12,5.79-3.31,5.81-3.35c0.08-0.14,0.25-0.18,0.38-0.11
								c0.14,0.08,0.18,0.25,0.11,0.38C107.82,114.35,105.9,117.71,101.61,117.84z"/>
						</g>
						<g>
							<g>
								<path class="st26" d="M109.43,96.54c-0.99-0.32-2.12-0.17-3.34,0.46c-0.43,0.22-0.95,0.05-1.17-0.37
									c-0.22-0.43-0.05-0.95,0.37-1.17c1.65-0.85,3.23-1.04,4.69-0.56c2.29,0.76,3.45,3.96,3.02,4.17
									C112.93,99.11,111.01,97.06,109.43,96.54z"/>
							</g>
							<g>
								<path class="st26" d="M87.88,100c-0.45-0.15,0.29-3.48,2.46-4.52c1.38-0.66,2.96-0.68,4.72-0.05
									c0.45,0.16,0.68,0.66,0.52,1.11c-0.16,0.45-0.66,0.68-1.11,0.52c-1.3-0.47-2.44-0.47-3.38-0.02
									C89.59,97.76,87.97,100.03,87.88,100z"/>
							</g>
						</g>
					</g>
				</g>
				<path class="st28" d="M82.24,99.69c0,0,6.41,10.44,7.04,13.49c0.37,1.8-2.36,4.38-3.2,3.96c-1.67-0.82-3.14-8.32-3.14-8.32"/>
				<path class="st28" d="M117.03,99.07c0,0-5.2,11.06-5.83,14.11c-0.37,1.8,2.05,3.73,2.9,3.32c1.67-0.82,2.26-7.14,2.26-7.14"/>
				<path class="st5" d="M86.39,107.47l12.33-1.61l15.38,0.38c-1.44,3.41-1.52,6.74,0.19,9.92c0,0-5.59,12.88-13.97,12.85
					c-7.88-0.03-14.24-11.87-14.24-11.87C87.17,112.8,88.24,111.43,86.39,107.47z"/>
			</g>
			<g>
				<path class="st21" d="M123.99,96.86c-1.65,9.98-7.73,15.11-7.73,15.11c-1.41,0,3.77-21.07-14.54-23.63
					c-0.61-0.09-1.25-0.16-1.92-0.19h-0.04c-8.96,0.57-12.97,5.17-14.75,10.17c-2.32,6.49-0.89,13.66-1.72,13.66
					c0,0-5.05-4.25-7.2-12.54c-0.21-0.82-0.4-1.67-0.54-2.56c-2.42-14.66,4.13-27.62,22.42-28.4l-0.01-0.03
					c0.13,0,0.24,0.01,0.37,0.01c0.13,0,0.24-0.01,0.36-0.01l0.01,0.03c3.78-0.13,7.11,0.24,10,1.02
					C121.71,73.01,125.97,84.88,123.99,96.86z"/>
				<path class="st24" d="M85.01,98.3c-2.32,6.49-0.89,13.66-1.72,13.66c0,0-5.05-4.25-7.2-12.54
					C78.35,99.46,81.47,99.26,85.01,98.3z"/>
				<path class="st24" d="M123.99,96.86c-1.65,9.98-7.73,15.11-7.73,15.11c-1.41,0,3.77-21.07-14.54-23.63
					c8.1-8.09,8.43-14.57,6.99-18.85C121.71,73.01,125.97,84.88,123.99,96.86z"/>
			</g>
			<g>
				<path class="st29" d="M109.13,112.07c-1.48-0.35-2.97-0.63-4.47-0.9c-1.5-0.25-2.98-0.51-4.54-0.6
					c-1.55,0.1-3.03,0.36-4.54,0.61c-1.5,0.27-2.99,0.55-4.47,0.89c1.51-0.17,3.01-0.38,4.52-0.57c1.5-0.18,3.02-0.45,4.49-0.51
					c1.47,0.05,2.99,0.31,4.49,0.5C106.12,111.69,107.62,111.9,109.13,112.07z"/>
				<path class="st29" d="M91.22,119.56c1.48,0.35,2.97,0.63,4.47,0.9c1.5,0.25,2.98,0.51,4.54,0.6c1.55-0.1,3.03-0.36,4.54-0.61
					c1.5-0.27,2.99-0.55,4.47-0.89c-1.51,0.17-3.01,0.38-4.52,0.57c-1.5,0.18-3.02,0.45-4.49,0.51c-1.47-0.05-2.99-0.31-4.49-0.5
					C94.23,119.95,92.73,119.74,91.22,119.56z"/>
				<path class="st29" d="M108.5,115.65c-2.89-0.14-5.78-0.11-8.67-0.1c-2.89,0.06-5.77,0.11-8.66,0.32
					c2.89,0.14,5.78,0.11,8.67,0.1C102.72,115.91,105.61,115.86,108.5,115.65z"/>
			</g>
		</g>
	</g>
	<g>
		<g>
			<polygon class="st14" points="349.68,190.89 361.25,214.75 377.56,223.25 373.36,234 351.25,225.75 336.75,202.37 			"/>
			<path class="st13" d="M333.85,164.4c0,0,4.55,2.69,5.54,4.28c5.57,6.65,14.15,24.05,14.15,24.05l-16.79,9.64l-4.63-12.86
				L333.85,164.4z"/>
			<path class="st24" d="M347.03,210.99c0,0,2.32-13.66,0.24-19.17c-2.38-6.29-9.66-21.03-9.66-21.03s9.48,13.13,12.89,25.14
				c1.18,4.14-1.19,14.08-1.19,14.08L347.03,210.99z"/>
		</g>
		<g>
			<path class="st10" d="M310.57,157.09c-21.46,6.22-27.24,13.09-27.24,13.09L298.8,210c0,0,3.33,15.44-0.68,22.89
				c-14.41,12.64-2.49,32.58-2.49,32.58c10.02,6.72,31.26-3.46,31.26-3.46s10.34-3.09,17.64-12.7c0,0-4.38-15.43-2.09-26.22
				c4.74-15.23,5.33-28.08,1.54-39.06C339.77,176.58,330.35,157.26,310.57,157.09z"/>
			<g>
				<path class="st30" d="M291.71,138.85l0.07-0.05c4.44-2.93,10.02-2.34,12.48,1.34c2.43,3.62,0.92,8.9-3.36,11.92
					c-0.08,0.06-0.16,0.12-0.24,0.17c-4.46,2.99-10.08,2.41-12.55-1.28C285.64,147.25,287.25,141.84,291.71,138.85z"/>
				<path class="st14" d="M293.44,137.89c4.44-2.93,8.36-1.43,10.82,2.25c2.43,3.62,0.92,8.9-3.36,11.92
					C292.3,149.34,291.24,144.2,293.44,137.89z"/>
			</g>
			<polygon class="st10" points="300.8,142.56 299.83,162.28 323.13,163.53 322.5,155.59 321.97,149.1 321.84,148.76 316.46,140.61 
							"/>
			<path class="st31" d="M300.8,142.56l-0.59,11.93c5.83,6.74,14.2,9.05,22.44,3.04l-0.68-8.42l-0.13-0.34l-5.38-8.15L300.8,142.56z
				"/>
			<g>
				<path class="st32" d="M331.04,358.78"/>
				<path class="st10" d="M318.96,396.18l-0.68-48.31c1.83-2.24,3.13-4.86,3.61-7.71c1.35-8.05,2.98-16.35,2.23-24.54
					c-0.43-4.69-2.09-8.95-4.74-12.33c0.94-5.14,1.89-10.27,2.75-15.42c1.27-7.55,1.83-15.2,3.62-22.66
					c0.62-2.6,0.73-5.16,0.39-7.61l5.35,12.53l0.23,2.52l6.87,73.25l-5.82,65.48l-1.19,13.47c-5.4,0.72-6.81-0.05-12.23,0.3
					l-0.18-13.45L318.96,396.18z"/>
				<path class="st33" d="M321.75,340.88l1.54,3.85l-4.33,51.45l-0.68-48.31C319.96,345.82,321.19,343.46,321.75,340.88z"/>
				<g>
					<path class="st34" d="M359.42,433.98l-43.18-0.38l2.76-13.86c0,0,4.76,5.26,8.45,3.58c3.69-1.23,5.63-4.99,5.63-4.99
						s7.08,3.19,14.07,6.11c0.01,0,0.02,0.01,0.03,0.01c0,0,0,0,0,0.01C353.62,427.16,360.8,429.58,359.42,433.98z"/>
					
						<rect x="316.23" y="433.23" transform="matrix(-1 -8.737284e-03 8.737284e-03 -1 671.9512 873.3076)" class="st34" width="43.31" height="3.92"/>
				</g>
			</g>
			<g>
				<path class="st32" d="M298.58,359.55"/>
				<path class="st10" d="M286.63,402.09l-0.68-48.31c1.83-2.24,3.13-4.86,3.61-7.71c1.35-8.05,2.98-16.35,2.23-24.54
					c-0.43-4.69-2.09-8.95-4.74-12.33c0.94-5.14,1.89-10.27,2.75-15.42c1.27-7.55,1.83-15.2,3.62-22.66
					c0.63-2.6,0.73-5.16,0.39-7.61l5.35,12.53l0.23,2.52l6.87,73.25l-5.82,65.48l-1.19,13.47c-5.4,0.72-6.81-0.05-12.23,0.3
					l-0.18-13.45L286.63,402.09z"/>
				<path class="st34" d="M299.56,426.24c0,0-3.67,3.32-5.17,3.51c-4.88,0.64-7.62-3.63-7.62-3.63c-4.1,4.53-6.49,11.39-6.98,15.05
					l12.89,7.88l14.03-7.67C306.17,438.5,299.56,426.24,299.56,426.24z"/>
				<path class="st34" d="M306.77,441.8c0.04,1.87,0.12,5.2,0.12,5.2s-18.3,7.76-27.31-1.2c0,0-0.17-1.87,0.21-4.61
					c12.47,7.46,26.11,0.62,26.92,0.21C306.75,441.57,306.77,441.7,306.77,441.8z"/>
				<path class="st33" d="M289.29,341.66l1.54,3.85l-4.33,51.45l-0.68-48.31C287.5,346.59,288.73,344.23,289.29,341.66z"/>
			</g>
			<polygon class="st14" points="284.65,419.44 304.39,420 316.88,308.05 317.54,416.97 339.16,415.42 344.14,250.77 286.08,262.18 
				285.73,298.57 			"/>
			<path class="st35" d="M289.81,419.09L289.81,419.09c-0.71-29.9,3.36-106.48,9.43-106.81c36.49-1.96,42.34-6.83,42.34-6.83
				l-55.94-6.1l-0.98,120.09L289.81,419.09z"/>
			<g>
				<g>
					<g>
						<path class="st13" d="M348.03,304.29c-0.96,0.19-1.9,0.38-2.86,0.56c-0.39,0.07-2.86,0.47-3.6,0.6
							c-0.68,0.09-1.34,0.18-1.53,0.2c-0.05,0.01-0.11,0.01-0.16,0.02c-1.55,0.2-3.08,0.39-4.64,0.55
							c-11.92,1.25-23.94,1.42-35.9,0.64c-2.34-0.15-4.77-0.23-7.12-0.5c-0.42-0.06-0.78-0.1-1.05-0.14
							c-0.14-0.02-0.27-0.04-0.41-0.06c-0.02,0-0.04-0.01-0.06-0.01c-0.03,0-0.06-0.01-0.08-0.01c-0.01-0.01-0.02-0.01-0.03-0.01
							c-0.44-0.07-0.85-0.13-1.08-0.16c-1.59-0.2-3.17-0.42-4.77-0.67c-0.46-0.07-0.93-0.14-1.39-0.22
							c0.32-8.59,0.51-16.79,0.44-22.84c-0.26-20.83,6.07-30.23,6.07-30.23s3.77-0.65,9.32-1.47c0.88-0.12,1.79-0.25,2.74-0.38
							c0.61-0.08,1.24-0.16,1.88-0.25c15.15-1.94,37.65-3.82,40.72,1.81c0.06,0.12,0.11,0.23,0.16,0.34
							C345.85,255.11,347.1,280.41,348.03,304.29z"/>
					</g>
				</g>
			</g>
			<path class="st14" d="M302.66,165.95c0,0,14.11,8.82,26.2,0.6s0.34,28.65,0.34,28.65L302.66,165.95z"/>
			<path class="st13" d="M289.87,252.02c-0.42,5.98-0.74,9.56-0.74,9.56s2.54-0.17,6.55-0.49c2.69-0.21,6.02-0.48,9.69-0.81
				c16.43-1.5,39.4-4.15,39.21-7.31c-0.02-0.4-0.05-0.82-0.06-1.25c-0.48-10.13-0.04-28.78,0.77-33.07
				c1.3-7.11,3.32-14.94,2.67-24.38c-0.15-6.22-13.84-29.38-14.16-29.8c-0.01,0-0.01-0.02-0.01-0.02c-1.67-0.84-3.42-1.62-4.92-2.26
				c-2.02-0.87-5.94-2.42-6.05-2.43c1.7,1.51,2.88,3.56,3.61,6.19c1.82,6.56,0.45,15.49-0.77,15.97
				c-3.14,1.11-12.81-8.59-20.27-15.86c-3.34-3.26-5.66-5.65-5.66-5.65s-2.58,0.83-5.89,2.25c-3.5,1.51-7.81,3.69-10.67,6.24
				l-0.02,0.02c-1.5,1.34-2.59,2.77-2.95,4.28c-1.96,3.5,4.92,10.53,8.49,20.95c0.96,2.79,1.61,5.67,2.03,8.7
				c0.33,2.21,0.54,4.51,0.68,6.9c0.01,0.03,0.01,0.05,0.01,0.08c0.17,2.93,0.22,6.01,0.27,9.3
				C291.17,232.46,290.42,244.25,289.87,252.02z"/>
			<path class="st24" d="M300.47,183.81l-0.1,0.2C300.39,183.88,300.43,183.81,300.47,183.81z"/>
			<path class="st24" d="M335.25,306.23c-11.92,1.25-23.94,1.42-35.9,0.64c-2.34-0.15-4.77-0.23-7.12-0.5
				c-0.42-0.06-0.78-0.1-1.05-0.14c-0.14-0.02-0.26-0.04-0.36-0.05c-0.02,0-0.03-0.01-0.05-0.01c-0.02,0-0.04-0.01-0.06-0.01
				c-0.03,0-0.06-0.01-0.08-0.01h0.05c-0.03,0-0.06-0.01-0.08-0.01c-0.44-0.07-0.85-0.13-1.08-0.16c-1.59-0.2-3.17-0.42-4.77-0.67
				c-0.46-0.07-0.93-0.14-1.39-0.22c0.32-8.59,0.51-16.79,0.44-22.84c-0.26-20.83,6.07-30.23,6.07-30.23
				c0.55-7.77,1.31-19.56,1.82-32.89c-0.04-3.28-0.1-6.37-0.26-9.3c0-0.02,0-0.05-0.01-0.07c-0.14-2.4-0.35-4.7-0.69-6.9l9.64-18.84
				c-0.35,1.92-0.1,17.76,0.88,36.16c1.16,21.75-10.22,63.18-2.67,73.23C308.42,306.5,336.45,306.1,335.25,306.23z"/>
		</g>
		<g>
			<path class="st36" d="M370.01,200.36l-3.82-0.09l0.06-0.51c0.13-1.16-0.47-2.13-1.36-2.17c-0.89-0.04-1.74,0.9-1.87,2.08
				l-0.06,0.52l-4.14-0.1c-1.08-0.03-2.07,1.06-2.2,2.43l-0.45,4.75l14.66-0.22l0.56-4.37
				C371.57,201.42,370.95,200.38,370.01,200.36z M363.88,199.79c0.06-0.56,0.45-1,0.87-0.98c0.42,0.01,0.71,0.47,0.65,1.02
				c-0.02,0.15-0.06,0.29-0.12,0.41c-0.16,0.34-0.44,0.57-0.75,0.56c-0.31-0.01-0.54-0.25-0.62-0.59
				C363.87,200.08,363.87,199.94,363.88,199.79z"/>
			<path class="st14" d="M378.96,216.09c0,0-6.87,17.39-6.85,17.3c0.02-0.09,5.17,2.51,7.78-4.12
				C383.34,220.54,378.96,216.09,378.96,216.09z"/>
			<path class="st37" d="M338.42,259.93l26.41-1.19c1.7-0.08,3.16-1.24,3.61-2.88l12.74-46.24c0.63-2.3-0.92-4.63-3.29-4.94
				l-30-0.39c-2.07-0.27-3.98,1.13-4.36,3.18l-9.15,47.81C333.92,257.78,335.9,260.04,338.42,259.93z"/>
			<g>
				<path class="st10" d="M383,214.98c-1.32-2.87-1.75-2.22-2.14-2.96c-1.13-1.47-4.87-3.63-6.03-3.78
					c-1.57-0.63-3.56-0.45-2.18,1.32c2.5,2.16,4.47,3.3,5.6,4.32c1.12,1.03,1.04,2.64,1.04,2.64s-0.76-1.34-1.52-2.2
					c-0.76-0.85-8.16-4.24-9.23-3.99c-1.08,0.25-0.68,2.3,1.11,3.05c0,0-1.81-0.57-2.36-0.16c-0.55,0.41-0.39,1.14,1.86,2.39
					c0,0-1.59,0.06-1.8,0.76c-0.2,1.52,4.9,3.51,5.16,3.9c0.27,0.39-2.49,6.23,2.81,10.66C375.31,230.92,383.77,224.37,383,214.98z"
					/>
				<path class="st31" d="M376.41,215.44c-0.04,0.12-1.57-0.25-3.42-0.83c-1.85-0.58-3.32-1.15-3.29-1.27
					c0.04-0.12,1.57,0.25,3.42,0.83C374.98,214.75,376.45,215.32,376.41,215.44z"/>
				<path class="st31" d="M374.74,217.45c-0.04,0.12-1.3-0.16-2.82-0.64c-1.52-0.47-2.72-0.96-2.69-1.08
					c0.04-0.12,1.3,0.16,2.82,0.64C373.57,216.84,374.78,217.33,374.74,217.45z"/>
			</g>
		</g>
		<g>
			<path class="st10" d="M285.95,283.36c0,0,4.72,2.02,6.14,3.2c1.43,1.18,1.76,5.37,1.76,5.37s0.97,1.93,1.56,2.37
				c0.59,0.44-2.56,2.16-3.99,0C289.99,292.14,285.95,283.36,285.95,283.36z"/>
			<path class="st31" d="M285.95,283.36c0,0,4.18,3.65,5.5,7.65c1.36,4.12,3.37,2.85,3.96,3.29c0.59,0.44-2.56,2.16-3.99,0
				C289.99,292.14,285.95,283.36,285.95,283.36z"/>
			<path class="st10" d="M293.16,298.91c0.1-4.91-5.79-15.52-7.45-16.09c-0.45,0.27-10.12,1.5-10.12,1.5
				c-0.53,5.8-0.09,12.12,2.43,16.04c0.47,0.74,1.36,2.49,2.14,2.65c2.02,0.4,1.42-2.37,1.93-1.89c3.86,6.62,6-0.25,6-0.25
				C289.26,303.49,293.11,301.28,293.16,298.91z"/>
			<path class="st10" d="M293.54,203.34c-8.89,29.24-7.62,80.02-7.62,80.02c-0.23,0.14-0.45,0.27-0.69,0.39
				c-5.17,2.76-10.28,1.34-10.28,1.34c-7.48-54.47,1.5-101.28,1.5-101.28s9.13-7.82,15.29,1.28c0.65,1.28,1.27,2.88,1.74,4.67
				C294.59,193.87,294.98,198.96,293.54,203.34z"/>
			<path class="st14" d="M293.54,203.34c-8.89,29.24-6.5,79.2-6.5,79.2c0.25,2.85-11.71,4.67-12.08,2.55
				c-7.48-54.47,1.5-101.28,1.5-101.28s9.13-7.82,15.29,1.28c0.65,1.28,1.27,2.88,1.74,4.67
				C294.59,193.87,294.98,198.96,293.54,203.34z"/>
		</g>
		<path class="st13" d="M285.47,167.13c0,0-5.47,3.36-8.26,7.47c-2.99,4.4-6.88,14.32-8.24,32.67c8.59,4.23,18.52,6.54,25.72,6.17
			c0,0,0.41-2.41,1.51-13.75C298.35,177.63,285.47,167.13,285.47,167.13z"/>
		<g>
			<g>
				<g>
					<path class="st38" d="M318.22,210.51c-0.8,0.04-1.61-0.02-2.42-0.21c-4.45-0.99-9.09-5.29-13.77-12.79
						c-3.46-5.54-5.67-10.86-5.69-10.91l0.76-0.23c0.09,0.21,8.77,21,18.91,23.26c2.4,0.54,4.74-0.04,6.94-1.71l0.53,0.52
						C321.79,209.72,320.03,210.41,318.22,210.51z"/>
				</g>
				<g>
					<path class="st38" d="M310.09,212.23c-1.16,0.07-2.46-0.04-3.88-0.32l0.18-0.68c3.63,0.71,6.31,0.24,7.94-1.41
						c6.18-6.22-3.35-26.95-3.45-27.16l0.75-0.26c0.02,0.05,2.48,5.36,4.11,11.39c2.22,8.17,1.95,13.71-0.8,16.48
						C313.76,211.46,312.14,212.11,310.09,212.23z"/>
				</g>
				<g>
					<path class="st9" d="M296.67,187.1c-0.28,0.02-0.57-0.12-0.69-0.35c-0.12-0.23-3.01-5.64-1.09-9.59
						c0.77-1.59,2.21-2.72,4.27-3.35c2.06-0.63,4.04-0.55,5.87,0.24c4.51,1.96,6.53,7.56,6.62,7.8c0.11,0.32-0.1,0.67-0.47,0.77
						c-0.38,0.09-0.78-0.08-0.89-0.41c-0.02-0.05-1.93-5.34-5.9-7.06c-1.47-0.64-3.06-0.7-4.74-0.18c-1.69,0.52-2.81,1.39-3.43,2.66
						c-1.68,3.45,1.04,8.55,1.06,8.6c0.17,0.31,0.01,0.67-0.35,0.82C296.85,187.08,296.76,187.1,296.67,187.1z"/>
				</g>
				<path class="st39" d="M326.85,206.21c0.48,0.69-0.07,1.73-1.24,2.33c-1.16,0.6-2.49,0.52-2.97-0.17
					c-0.48-0.69,0.07-1.73,1.24-2.33C325.04,205.44,326.37,205.52,326.85,206.21z"/>
				<path class="st39" d="M307.1,211.43c-0.23,0.78-1.47,1.18-2.79,0.9c-1.31-0.28-2.19-1.14-1.97-1.92
					c0.23-0.78,1.47-1.19,2.79-0.9C306.45,209.79,307.33,210.65,307.1,211.43z"/>
				<g>
					<path class="st9" d="M299.27,174.86c-0.32,0.02-0.62-0.15-0.73-0.43c-0.13-0.36-4.73-12.87,1.23-15.57
						c0.11-0.05,0.21,1.37,0.21,1.37c-4.68,2.8-0.11,13.75-0.08,13.83c0.12,0.32-0.09,0.67-0.47,0.77
						C299.38,174.85,299.32,174.86,299.27,174.86z"/>
				</g>
			</g>
			<g>
				
					<rect x="334.27" y="214.37" transform="matrix(0.9953 -0.0969 0.0969 0.9953 -19.4264 33.4629)" class="st38" width="0.99" height="4.7"/>
				
					<ellipse transform="matrix(0.6345 -0.7729 0.7729 0.6345 -48.8408 340.6434)" class="st39" cx="335.78" cy="221.97" rx="4.52" ry="4.56"/>
				<path class="st38" d="M334.96,220.69c-0.17,1.88,1.57,3.32,3.39,2.79c1.01-0.29,1.77-1.22,1.86-2.26
					c0.17-1.88-1.57-3.32-3.39-2.79C335.82,218.72,335.06,219.65,334.96,220.69z"/>
				<path class="st9" d="M333.88,215.38c-0.09-1.07-0.89-9.59-1.58-26.18c-0.56-13.75-7.29-25.7-9.46-29.23l-0.15-1.86
					c-0.01-0.88,9.86,8.87,11.03,31.03c0.88,16.61,1.64,25.94,1.65,26.04C335.02,215.68,333.88,215.38,333.88,215.38z"/>
			</g>
		</g>
		<g>
			<g>
				<path class="st10" d="M324.53,136.27c0,0,3.15-7.37,7.95-5.58c4.8,1.79-0.57,14.03-7.95,11.38V136.27z"/>
				<path class="st40" d="M330.98,134.07c-3.43-0.05-5.39,3.04-5.48,3.17c-0.08,0.13-0.04,0.31,0.09,0.39
					c0.05,0.03,0.1,0.04,0.15,0.04c0.1,0,0.19-0.05,0.24-0.13c0.01-0.02,0.75-1.17,2.05-2.01c1.18,0.77,0.57,2.77,0.57,2.79
					c-0.05,0.15,0.04,0.31,0.19,0.36c0.03,0.01,0.06,0.01,0.09,0.01c0.12,0,0.23-0.08,0.27-0.2c0.03-0.1,0.67-2.2-0.58-3.27
					c0.66-0.34,1.43-0.58,2.3-0.58c0.03,0,0.06,0,0.09,0c0.14,0.02,0.29-0.12,0.29-0.28C331.26,134.2,331.13,134.07,330.98,134.07z"
					/>
			</g>
			<g>
				<path class="st10" d="M296.12,136.14c0,0-3.15-7.37-7.95-5.58c-4.8,1.79,0.57,14.03,7.95,11.38V136.14z"/>
				<path class="st40" d="M289.68,133.94c3.43-0.05,5.39,3.04,5.48,3.17c0.08,0.13,0.04,0.31-0.09,0.39
					c-0.05,0.03-0.1,0.04-0.15,0.04c-0.1,0-0.19-0.05-0.24-0.13c-0.01-0.02-0.75-1.17-2.05-2.01c-1.18,0.77-0.57,2.77-0.57,2.79
					c0.05,0.15-0.04,0.31-0.19,0.36c-0.03,0.01-0.06,0.01-0.09,0.01c-0.12,0-0.23-0.08-0.27-0.2c-0.03-0.1-0.67-2.2,0.58-3.27
					c-0.66-0.34-1.43-0.58-2.3-0.58c-0.03,0-0.06,0-0.09,0c-0.14,0.02-0.29-0.12-0.29-0.28
					C289.39,134.08,289.52,133.95,289.68,133.94z"/>
			</g>
			<path class="st10" d="M327.57,132.68c0,13.48-5.36,24.22-14.45,24.22c-9.09,0-18.48-10.74-18.48-24.22
				c0-13.48,7.37-24.41,16.47-24.41S327.57,119.2,327.57,132.68z"/>
			<g>
				<g>
					<g>
						<path class="st40" d="M302.49,138.64c-0.04,0.27-0.75,0.4-1.58,0.28c-0.83-0.12-1.47-0.44-1.44-0.71
							c0.04-0.27,0.75-0.4,1.58-0.28C301.88,138.05,302.53,138.37,302.49,138.64z"/>
						<path class="st40" d="M302.63,140.29c-0.04-0.27-0.75-0.4-1.58-0.28c-0.83,0.12-1.47,0.44-1.44,0.71
							c0.04,0.27,0.74,0.4,1.58,0.28C302.03,140.88,302.67,140.56,302.63,140.29z"/>
					</g>
					<g>
						<path class="st40" d="M323.75,140.29c0.04-0.27,0.74-0.4,1.58-0.28c0.83,0.12,1.47,0.44,1.44,0.71
							c-0.04,0.27-0.74,0.4-1.58,0.28C324.36,140.88,323.71,140.56,323.75,140.29z"/>
						<path class="st40" d="M323.61,138.64c0.04,0.27,0.74,0.4,1.58,0.28c0.83-0.12,1.47-0.44,1.44-0.71
							c-0.04-0.27-0.74-0.4-1.58-0.28C324.21,138.05,323.57,138.37,323.61,138.64z"/>
					</g>
				</g>
				<g>
					<g>
						<path class="st40" d="M313.69,142.83c0.03,0,0.07,0,0.1,0c0.43-0.04,1.44-0.4,1.55-2.99c0.17-4.24-0.51-6.58-0.54-6.68
							c-0.04-0.15-0.2-0.24-0.36-0.19c-0.15,0.05-0.24,0.2-0.19,0.36c0.01,0.02,0.69,2.36,0.52,6.49c-0.07,1.74-0.58,2.41-1.03,2.45
							c-0.66,0.07-1.65-1.06-2.07-2.98c-0.03-0.15-0.19-0.25-0.34-0.22c-0.15,0.03-0.25,0.19-0.22,0.34
							C311.55,141.41,312.63,142.83,313.69,142.83z"/>
					</g>
					<g>
						<path class="st40" d="M313.41,147.12c-4.36,0-6.97-3.34-7.08-3.49c-0.1-0.13-0.07-0.3,0.05-0.4c0.12-0.1,0.3-0.07,0.4,0.05
							c0.03,0.03,2.56,3.26,6.63,3.26c4.05,0,6-3.2,6.02-3.23c0.08-0.14,0.26-0.18,0.39-0.1c0.14,0.08,0.18,0.26,0.1,0.39
							C319.84,143.75,317.79,147.12,313.41,147.12z"/>
					</g>
					<g>
						<g>
							<path class="st30" d="M322.62,126.53c-0.93-0.45-2.06-0.45-3.34,0.01c-0.45,0.16-0.94-0.07-1.1-0.52
								c-0.16-0.45,0.07-0.94,0.52-1.1c1.74-0.62,3.31-0.6,4.68,0.07c2.15,1.05,2.88,4.35,2.43,4.5
								C325.72,129.52,324.11,127.25,322.62,126.53z"/>
						</g>
						<g>
							<path class="st30" d="M300.7,129.53c-0.09,0,0-3.5,2.15-4.54c1.37-0.66,2.94-0.69,4.68-0.07c0.45,0.16,0.68,0.65,0.52,1.1
								c-0.16,0.45-0.65,0.68-1.1,0.52c-1.29-0.46-2.42-0.46-3.35-0.01C302.12,127.26,301.06,129.53,300.7,129.53z"/>
						</g>
					</g>
				</g>
				<path class="st12" d="M306.36,130.17l-2.78,0.1c0,0,0.43,0.85,2.07,1.03c-0.19,0.72-0.31,1.72-0.31,2.83
					c0,2.19,0.46,3.96,1.03,3.96c0.57,0,1.03-1.77,1.03-3.96C307.38,131.95,306.93,130.17,306.36,130.17z"/>
				<path class="st12" d="M322.9,130.27l-2.78-0.1c-0.57,0-1.03,1.77-1.03,3.96c0,2.19,0.46,3.96,1.03,3.96s1.03-1.77,1.03-3.96
					c0-1.11-0.12-2.11-0.31-2.83C322.47,131.12,322.9,130.27,322.9,130.27z"/>
			</g>
			<path class="st30" d="M317.64,114.13c0,0-5.22,4.96-15.8,7.43c-9.11,2.18-6.98,13.49-6.98,13.49s-8.41-6.33-5.46-18.47
				c3.57-13.88,21.71-21.37,31.31-11.79c0,0,5.92-0.76,8.33,6.25c7.1,17.32-1.54,24.01-1.54,24.01s0.08-10.89-1.55-12.99
				C322.45,117.59,317.96,117.55,317.64,114.13z"/>
		</g>
	</g>
	<g>
		<g>
			<g>
				<path class="st10" d="M136.35,202.7c0,0-11.93,37.62-12.58,82.72c0,0,4.33,1.94,9.11-0.06c0,0,5.22-41.34,16.04-63.96
					c2.44-4.84,2.02-11.33,0.79-15.02C138.6,188.36,136.35,202.7,136.35,202.7z"/>
			</g>
			<g>
				<path class="st41" d="M126.69,293.32c0,0,2.46,4.93,2.9,5.41c0.45,0.47,3.68,1.82,3.95,2.63c0.27,0.81-0.81,1.75-3.19,0.82
					c-2.38-0.93-3.05-1.2-3.5-1.67c-0.45-0.47-3.13-5.62-3.13-5.62L126.69,293.32z"/>
				<path class="st42" d="M125.83,294.54c0,0,2.05,6.05,2.49,6.66c0.44,0.61,3.98,2.59,4.16,3.57c0.18,0.98-1.22,1.92-3.84,0.54
					s-3.35-1.79-3.79-2.4c-0.44-0.61-2.72-6.93-2.72-6.93L125.83,294.54z"/>
				<path class="st10" d="M123.78,285.19c0,0-2.57,6.97-2.95,9.08c-0.39,2.11,3.61,10.33,4.12,12.77c0.83,2.5,3.12,2.07,2.68-1.37
					c-0.39-3.71-1.96-9.78-2.01-10.3s3.02-3.4,3.44-3.56c0.42-0.16,2.26,2.53,2.39,3.05c0.12,0.51-1.23,3.93,1.05,5.65
					c2.28,1.72,3.5-5.67,3.22-7.08c-0.28-1.41-0.71-6.35-3.61-9.06l-7.04-0.18L123.78,285.19z"/>
			</g>
		</g>
		<path class="st2" d="M148.77,167.5c0,0-4.5,2.71-5.46,4.29c-0.97,1.59-15.02,32.57-15.02,32.57l16.11,12.92l6.31-24.9
			L148.77,167.5z"/>
		
			<rect x="124.55" y="207.78" transform="matrix(0.9155 0.4023 -0.4023 0.9155 96.6332 -37.906)" class="st43" width="28.02" height="6.65"/>
		<path class="st10" d="M182.47,165.24l-1.28,0.06l-21.85,1.04l0.34-6.06c0.91,0.6,3.44,2.19,4.99,2.09
			c6.66-0.43,15.24-2.87,17.34-3.48l0.39,5.29L182.47,165.24z"/>
		<path class="st32" d="M141.95,360.19"/>
		<g>
			<path class="st10" d="M191.41,419.52l-0.26,5.14c0,0,0.71,9.43,1.23,10.87c2.56,4.15-0.54,11.81-0.78,15.32
				c-0.18,3.73-21.7,8.32-22.44,1.96c1.2-4.7,9.46-17.56,9.78-19.76c0.33-2.18-0.05-9.25,0.27-9.34l-4.21-71.31l8.92-55.68
				l10.88,55.32L191.41,419.52z"/>
			<path class="st30" d="M172.41,445.6c0,0,0.69,4.69,7.57,4.15c6.88-0.54,10.65-6.19,10.65-6.19s0.82-5.82,1.07-6.27
				c0.24-0.46-0.02-6.58-0.02-6.58s2.85,7.48,2.07,11.01c0,0-1.32,9.01-2.56,11.47c-1.25,2.46-8.33,4.94-15.01,5.29
				C169.5,458.84,165.32,454.62,172.41,445.6z"/>
		</g>
		<g>
			<path class="st10" d="M174.51,425.72c0.82,2.79,0.31,5.59-0.39,8.12c-0.99,3.6-30.8,11.94-32.17,5.68
				c0.22-1.49,2.06-3.48,4.48-5.59c5.35-4.65,13.59-9.82,13.66-11.35c0.11-2.2-0.82-6.19-0.51-6.31l-11.34-70.53l3.29-56.29
				l16.38,53.94l3.39,67.49l0.26,5.14c0,0,0.41,3.69,0.94,5.57c0.09,0.28,0.17,0.53,0.26,0.72c0.49,0.64,0.88,1.3,1.19,1.95
				l0.01,0.04C174.18,424.77,174.37,425.25,174.51,425.72z"/>
			<path class="st30" d="M174.12,433.84c-0.99,3.6-30.8,11.94-32.17,5.68c0.22-1.49,2.06-3.48,4.48-5.59
				c2.27,1.55,4.12,3.5,9.88,0.91c3.55-1.61,12.64-3.98,16.19-13.26c0.09,0.28,0.17,0.53,0.26,0.72c0.49,0.64,0.88,1.3,1.19,1.95
				l0.01,0.04c0.22,0.47,0.41,0.95,0.55,1.43C175.33,428.52,174.82,431.31,174.12,433.84z"/>
		</g>
		<g>
			<path class="st2" d="M203.49,352.39c0,0-35.58,6.46-65.33-0.39c-2.78-0.63-5.51-1.39-8.16-2.27c0,0,7.94-89.16,10.04-95.06
				c0.04-0.12,0.1-0.23,0.15-0.35c3.05-5.9,27.17-4.2,42.19-2.55h0.03c7,0.8,12.01,1.56,12.01,1.56c0.01,0.01,0.01,0.02,0.02,0.03
				c0.38,0.55,6.48,9.79,6.7,29.8C201.39,303.84,203.49,352.39,203.49,352.39z"/>
		</g>
		<g>
			<path class="st30" d="M150.91,147.19l4.35,8.71c0,0,5.17,6.07,15.9,5.52c11.22-0.69,15.72-10.45,15.72-10.45l1.3-9.61l-2.27-7
				l-37.03,3.9L150.91,147.19z"/>
			<path class="st10" d="M181.79,149.34l0.09,2.06l0.36,12.21c0,0-0.08,8.61-10.71,9.16c-10.64,0.55-10.89-7.39-10.89-7.39
				l-0.48-7.09l-0.49-7.24l-0.11-1.66l0.42,0.04l10.41,1.1l10.66-2.25L181.79,149.34z"/>
			<path class="st44" d="M181.88,151.07l0,0.33c-1.78,3.68-7.32,11.11-21.72,6.89l-0.49-7.24l0.31-1.61l10.41,1.1l11.33-2.56
				L181.88,151.07z"/>
			<g>
				<g>
					<path class="st10" d="M184.53,135.96c0,0,2.78-7.56,7.68-6.01s0.15,14.11-7.38,11.83L184.53,135.96z"/>
					<path class="st40" d="M190.88,133.42c-3.44,0.13-5.25,3.32-5.33,3.46c-0.08,0.14-0.03,0.31,0.11,0.39
						c0.05,0.03,0.1,0.04,0.15,0.04c0.1,0,0.19-0.06,0.24-0.15c0.01-0.02,0.69-1.21,1.95-2.13c1.23,0.71,0.72,2.75,0.71,2.77
						c-0.04,0.15,0.05,0.31,0.2,0.35c0.03,0.01,0.06,0.01,0.09,0.01c0.12-0.01,0.23-0.09,0.26-0.21c0.03-0.1,0.56-2.24-0.75-3.26
						c0.64-0.37,1.4-0.65,2.28-0.7c0.03,0,0.06,0,0.09,0c0.14,0.02,0.28-0.14,0.28-0.3C191.18,133.54,191.04,133.42,190.88,133.42z"
						/>
				</g>
				<g>
					<path class="st40" d="M147.91,135.64c3.44-0.22,5.57,2.77,5.66,2.89c0.09,0.13,0.06,0.31-0.07,0.4
						c-0.05,0.03-0.1,0.05-0.15,0.05c-0.1,0-0.19-0.04-0.25-0.12c-0.01-0.02-0.81-1.13-2.16-1.91c-1.15,0.84-0.43,2.81-0.43,2.83
						c0.06,0.15-0.02,0.31-0.17,0.37c-0.03,0.01-0.06,0.02-0.09,0.02c-0.12,0.01-0.24-0.07-0.28-0.19c-0.04-0.1-0.79-2.17,0.41-3.31
						c-0.68-0.3-1.46-0.5-2.34-0.46c-0.03,0-0.06,0-0.09,0.01c-0.14,0.03-0.3-0.11-0.31-0.27
						C147.63,135.79,147.75,135.65,147.91,135.64z"/>
				</g>
				
					<ellipse transform="matrix(0.9987 -0.0515 0.0515 0.9987 -6.6341 8.8923)" class="st10" cx="169.34" cy="133.26" rx="16.54" ry="24.52"/>
				<g>
					<g>
						<g>
							<path class="st40" d="M158.98,139.8c-0.03,0.28-0.73,0.44-1.57,0.36c-0.84-0.08-1.5-0.36-1.48-0.64
								c0.02-0.28,0.73-0.44,1.57-0.36C158.35,139.23,159.01,139.52,158.98,139.8z"/>
							<path class="st40" d="M159.21,141.44c-0.05-0.27-0.77-0.36-1.6-0.2c-0.83,0.16-1.46,0.51-1.4,0.79
								c0.05,0.27,0.77,0.36,1.6,0.2C158.64,142.06,159.27,141.71,159.21,141.44z"/>
						</g>
						<g>
							<path class="st40" d="M180.4,140.35c0.02-0.28,0.73-0.44,1.57-0.36c0.84,0.08,1.5,0.36,1.48,0.64
								c-0.02,0.28-0.73,0.44-1.57,0.36C181.04,140.91,180.38,140.62,180.4,140.35z"/>
							<path class="st40" d="M180.17,138.7c0.05,0.27,0.77,0.36,1.6,0.2s1.46-0.51,1.4-0.79c-0.05-0.27-0.77-0.36-1.6-0.2
								C180.75,138.08,180.12,138.43,180.17,138.7z"/>
						</g>
					</g>
					<g>
						<g>
							<path class="st40" d="M170,143.08c-0.03,0-0.07,0-0.11,0c-0.43-0.02-1.47-0.33-1.71-2.92c-0.39-4.24,0.17-6.62,0.2-6.72
								c0.04-0.15,0.19-0.25,0.35-0.21c0.15,0.04,0.25,0.19,0.21,0.35c-0.01,0.02-0.57,2.4-0.18,6.53c0.16,1.75,0.7,2.38,1.16,2.4
								c0.66,0.03,1.6-1.15,1.93-3.09c0.03-0.16,0.18-0.26,0.33-0.24c0.16,0.03,0.26,0.17,0.24,0.33
								C172.07,141.55,171.07,143.03,170,143.08z"/>
						</g>
						<g>
							<path class="st40" d="M170.38,147.73c-4.37,0.23-7.17-2.99-7.29-3.13c-0.1-0.12-0.09-0.3,0.03-0.4
								c0.12-0.1,0.3-0.09,0.41,0.03c0.03,0.03,2.74,3.14,6.82,2.93c4.07-0.21,5.86-3.52,5.87-3.56c0.07-0.14,0.25-0.19,0.39-0.12
								c0.14,0.07,0.19,0.25,0.12,0.39C176.66,144.02,174.77,147.5,170.38,147.73z"/>
						</g>
						<g>
							<g>
								<path class="st30" d="M177.52,126.66c-0.96-0.4-2.09-0.34-3.35,0.18c-0.44,0.18-0.94-0.03-1.13-0.47
									c-0.18-0.44,0.03-0.95,0.47-1.13c1.71-0.71,3.29-0.77,4.7-0.17c2.21,0.94,3.11,4.21,2.67,4.39
									C180.78,129.5,179.05,127.3,177.52,126.66z"/>
							</g>
							<g>
								<path class="st30" d="M157.48,130.67c-0.46-0.13,0.1-3.48,2.2-4.64c1.34-0.74,2.91-0.84,4.69-0.31
									c0.46,0.14,0.72,0.62,0.58,1.07c-0.14,0.46-0.62,0.72-1.07,0.58c-1.32-0.39-2.45-0.34-3.36,0.17
									C159.06,128.34,157.57,130.69,157.48,130.67z"/>
							</g>
						</g>
					</g>
				</g>
				<path class="st30" d="M162.66,131.09l-2.78,0.25c0,0,0.47,0.83,2.12,0.92c-0.15,0.73-0.22,1.74-0.16,2.86
					c0.11,2.19,0.67,3.95,1.23,3.92c0.57-0.03,0.94-1.83,0.82-4.03C163.78,132.81,163.23,131.06,162.66,131.09z"/>
				<path class="st30" d="M178.56,130.37l-2.79,0.04c-0.57,0.03-0.94,1.83-0.82,4.03c0.11,2.19,0.67,3.95,1.23,3.92
					c0.57-0.03,0.94-1.83,0.82-4.03c-0.06-1.11-0.23-2.11-0.46-2.83C178.17,131.24,178.56,130.37,178.56,130.37z"/>
			</g>
			<path class="st12" d="M172.6,112.99c0,0-4.08,0.33-7.15,6.44c-3.07,6.11-5.7,10.37-11.73,10.68c0,0-0.08,19.32,3.55,27.55
				c0,0-11.02-5.99-12.36-23.03c-1.34-17.04,9.52-40.46,28.34-30.7c0,0,3.41-3.53,10.64,1.34c4.13,2.95,21.65,26.13,0.59,49.37
				c0,0,2.56-21.42-1.06-30.57C183.41,124.07,173.55,124.8,172.6,112.99z"/>
		</g>
		<g>
			<path class="st2" d="M191.53,104.25l-1.11,1.84l-1.31,2.2l-1.43,2.39c-13.35-5-22.76-5-34.8-1.36l-0.16-0.42l-0.86-2.23
				l-0.92-2.39l-0.63-1.63c0,0-0.67-0.58,1.88-3.99c4.95-6.56,23.26-8.34,33.09-2.22c0.84,0.51,1.62,1.09,2.32,1.73
				C191.93,102.11,191.53,104.25,191.53,104.25z"/>
			<path class="st43" d="M190.42,106.1l-1.31,2.21c-17.43-7.27-32.31-3.35-37.26-1.63l-0.92-2.38
				C156.54,102.34,172.04,98.4,190.42,106.1z"/>
			<path class="st24" d="M191.53,104.25l-1.11,1.84l-1.31,2.2l-1.43,2.39c-13.35-5-22.76-5-34.8-1.36l-0.16-0.42
				c1.32-0.33,2.89-0.69,4.74-1.07c14.67-3.01,23.3-7.97,27.82-11.39c0.84,0.51,1.62,1.09,2.32,1.73
				C191.93,102.11,191.53,104.25,191.53,104.25z"/>
		</g>
		<path class="st2" d="M195.83,257.69c0.42,3.05-0.46,5.09-0.46,5.09s-5.66-0.24-13.34-0.72c-0.9-0.06-1.83-0.12-2.79-0.18
			c-16.34-1.1-39.19-3.18-39.08-6.34c0.01-0.39,0.03-0.81,0.03-1.23c0.06-2.61,0.27-5.84,0.53-9.27c0-0.01,0-0.01,0-0.02
			c0.75-9.79,1.9-21.18,1.23-24.31c-0.55-2.65-1.79-5.21-3.1-7.88c-0.02-0.03-0.03-0.07-0.06-0.11c0-0.01-0.01-0.03-0.02-0.05
			c-1.01-2.06-2.05-4.17-2.83-6.45c0,0,0-0.01-0.01-0.02c-0.12-0.32-0.22-0.66-0.32-0.99v-0.01c-0.69-2.23-1.1-4.61-0.98-7.24
			c0-6.18,13.83-30.03,14.14-30.45v-0.01c0.01-0.01,0.01-0.01,0.01-0.01c1.56-0.83,6.08-2.84,7.75-3.6c0.08-0.04,0.15-0.07,0.2-0.1
			c1.98-0.9,2.61-3.76,2.61-3.76s0.13,0.09,0.34,0.23c0.91,0.6,3.44,2.19,4.99,2.09c6.66-0.43,15.24-2.87,17.34-3.48
			c0.31-0.1,0.48-0.15,0.48-0.15s0.45,1.57,1.88,2.98c0.59,0.57,1.35,1.12,2.32,1.5c3.51,1.42,9.51,5.04,12.41,7.5l0.02,0.03
			c1.14,0.96,2.04,1.98,2.59,3.05c0.19,0.36,0.34,0.74,0.45,1.12c2.02,3.43-4.63,10.58-7.93,21c-0.77,2.41-1.3,4.87-1.66,7.44
			c-0.06,0.39-0.12,0.78-0.16,1.17c0,0.02,0,0.05-0.01,0.08c-0.19,1.57-0.33,3.19-0.42,4.86c-0.04,0.59-0.06,1.19-0.08,1.8
			c-0.01,0.08-0.01,0.14-0.01,0.17c-0.01,0.02-0.01,0.06-0.01,0.08c-0.06,1.88-4.46,8.14-4.04,19.2c0.01,0.25,0.02,0.51,0.04,0.78
			c0,0.06,0.01,0.12,0.01,0.17c0.03,0.47,0.07,0.95,0.12,1.44c0.02,0.27,0.05,0.54,0.09,0.82c0.07,0.55,0.15,1.12,0.23,1.7
			c0.04,0.29,0.1,0.59,0.15,0.89c0.11,0.58,0.22,1.17,0.36,1.78c0.19,0.91,0.43,1.85,0.7,2.81c0.17,0.64,0.37,1.29,0.58,1.95
			c0.12,0.4,0.25,0.8,0.4,1.2c0.14,0.41,0.28,0.82,0.44,1.22c0,0-0.01,0.01,0,0.01c0.16,0.41,0.31,0.82,0.48,1.24
			c0.49,1.26,1.05,2.56,1.67,3.89c0.2,0.44,0.42,0.89,0.64,1.34c0.22,0.45,0.46,0.91,0.69,1.37c0.01,0.01,0.01,0.02,0.02,0.03
			C195.25,254.93,195.65,256.4,195.83,257.69z"/>
		<path class="st24" d="M140.21,215.71c0,0-6.86-11.37-4.42-17.57c2.44-6.21,10.87-19.53,10.87-19.53s-12.06,14.5-12.53,21.17
			c-0.3,4.26,2.23,14,2.23,14L140.21,215.71z"/>
		<path class="st24" d="M203.49,352.39c0,0-35.58,6.46-65.33-0.39c26.47-10.47,41.29-39.07,43.87-89.93
			c0.17-3.34,0.29-6.77,0.35-10.3c0.27-15.02,5.28-44.89,3.62-63.5l6.56,15.08c-0.04,0.65-0.65,7.42-0.67,8.09
			c-0.01,0.02-0.01,0.06-0.01,0.08c-0.1,2.91-10.6,16.34,2.54,41.82c0.01,0.01,0.01,0.02,0.02,0.03c0.38,0.55,6.48,9.79,6.7,29.8
			C201.39,303.84,203.49,352.39,203.49,352.39z"/>
		<g>
			<path class="st10" d="M186.96,242.04c-1.23-0.31-4,1.38-4,1.38s-5.66,4.19-6.21,5.42c-1.23,1.53-1.69,3.79,0.73,2.86
				c3.23-2.05,5.15-3.85,6.67-4.76c1.52-0.9,3.27-0.27,3.27-0.27s-1.75,0.39-2.95,0.95c-1.2,0.55-7.43,7.63-7.52,8.9
				c-0.08,1.28,2.32,1.53,3.75-0.21c0,0-1.24,1.82-0.97,2.56c0.27,0.74,1.13,0.82,3.27-1.26c0,0-0.47,1.78,0.24,2.25
				c1.62,0.73,5.53-4.26,6.05-4.42c0.52-0.16,6.07,4.84,12.77,0.46C202.07,255.91,197.64,244.33,186.96,242.04z"/>
			<path class="st31" d="M186.27,250.07c0.11,0.1-1.03,1.52-2.55,3.18c-1.52,1.66-2.84,2.92-2.95,2.82
				c-0.11-0.1,1.03-1.52,2.55-3.18C184.84,251.24,186.16,249.97,186.27,250.07z"/>
			<path class="st31" d="M187.55,252.82c0.11,0.1-0.81,1.28-2.06,2.65c-1.25,1.36-2.35,2.38-2.46,2.28
				c-0.11-0.1,0.81-1.28,2.06-2.65C186.34,253.74,187.44,252.72,187.55,252.82z"/>
		</g>
		<path class="st43" d="M184.36,161.71c-0.58,0.88-1.24,1.7-1.97,2.45c-0.38,0.4-10.82,4.83-20.51,3.7c-1.21-0.14-3.89,0-5.36-3.96
			c0.08-0.04,0.15-0.07,0.2-0.1c1.98-0.9,2.61-3.76,2.61-3.76s0.13,0.09,0.34,0.23c0.91,0.6,3.44,2.19,4.99,2.09
			c6.66-0.43,15.24-2.87,17.34-3.48c0.31-0.1,0.48-0.15,0.48-0.15S182.92,160.3,184.36,161.71z"/>
		<path class="st10" d="M196,249.34c0,0,24.9-22.31,25.17-22.91s-32.09-33.26-32.09-33.26s-1.24-17.32,7.09-20.75
			c0,0,37.27,45.41,40.72,52.31c3.44,6.9-23.74,26.08-34.81,31.17L196,249.34z"/>
		<path class="st2" d="M189.63,175.78l2.97-6.03c0,0,4.22-0.28,8.24,3.24c4.02,3.52,7.96,7.5,19.04,22.01l-17.94,17.86l-7.77-7.2
			C194.16,205.66,182.56,191.31,189.63,175.78z"/>
		<path class="st45" d="M162.16,161.69l-0.62,4.98c0,0-17.46,27.23-14.23,44.69c0,0,7.03,9.44,3.39,21.4
			c-2.68,8.8-15.04,120.41-11.14,119.55"/>
		<g>
			<path class="st46" d="M175.16,187.6c3.27,0.1,5.4,2.88,4.76,6.21c-0.64,3.33-3.8,5.95-7.07,5.85c-3.27-0.1-5.4-2.88-4.76-6.21
				C168.74,190.12,171.9,187.5,175.16,187.6z"/>
			<polygon class="st47" points="173.72,190.29 173.21,192.46 171.1,192.3 170.59,194.47 172.7,194.63 172.19,196.8 174.31,196.96 
				174.82,194.79 176.93,194.96 177.44,192.78 175.32,192.62 175.83,190.45 			"/>
		</g>
		
			<rect x="197.13" y="200.37" transform="matrix(0.7071 -0.7071 0.7071 0.7071 -82.1885 209.0937)" class="st43" width="28.34" height="6.77"/>
	</g>
	<g>
		<path class="st29" d="M274.44,368.13c-10.11-2.51-20.01-4.12-29.65-4.63c-1.9-0.1-5.04-19.09-5.04-19.09s-3.4,18.92-4.78,18.96
			c-9.72,0.28-19.15,1.79-28.23,4.75l30.47-82.51L274.44,368.13z"/>
		<g>
			<g>
				<path class="st10" d="M267.01,282.52l8.07,154.77c0,0,0.93,6.17,1.42,7.44c2.36,3.65,6.31,12.5,6.18,15.63
					c-0.09,3.34-20.3,6.87-21.11,1.21c-0.69-6.1,3.85-14.62,4.09-16.58c0.24-1.96-23.67-133.81-23.67-133.81l-0.01-0.07l-2.25-26.73
					L267.01,282.52z"/>
				<path class="st10" d="M274.76,431.11c0,0-3.73,4.88-7.51,4.01c-3.04-0.7-1.92,7.27-1.92,7.27l-2.37-13.2L274.76,431.11z"/>
				<g>
					<path class="st48" d="M258.97,460.35c0,1.73,0,4.82,0,4.82s18.67,6.79,27.55-1.72c0,0,0.13-1.73-0.32-4.27
						c-0.58-3.39-2.18-8.2-6.43-12.31l-3.46-4.48c0,0,0.07,5.44-4.55,5.71c-4.62,0.27-6.44-5.71-6.44-5.71l-2.25,5.88
						c0,0-3.59,9.01-4.07,11.7C258.98,460.12,258.97,460.25,258.97,460.35z"/>
					<path class="st49" d="M258.97,460.35c0,1.73,0,4.82,0,4.82s18.67,6.79,27.55-1.72c0,0,0.13-1.73-0.32-4.27
						c-12.41,7.19-26.36,1.15-27.19,0.79C258.98,460.12,258.97,460.25,258.97,460.35z"/>
				</g>
				<path class="st3" d="M257.77,440.07L240.48,317.5v-33.13l26.53-1.86l11.85,156.04c0,0-3.63,3.26-9.61,4.31
					C264.6,443.68,257.77,440.07,257.77,440.07z"/>
			</g>
			<g>
				<path class="st10" d="M214.48,282.65c0,0-11,160.8-11.5,162.07c-2.36,3.65-6.31,12.5-6.18,15.63c0.09,3.34,20.3,6.87,21.11,1.21
					c0.69-6.1-3.85-14.62-4.09-16.58c-0.24-1.96,23.67-133.81,23.67-133.81l0.01-0.07l2.25-26.73L214.48,282.65z"/>
				<path class="st10" d="M216.06,431.08l-2.51,15.68c0,0,0.11-11.91-0.76-11.83c-3.25,0.28-9.18-5.41-9.18-5.41L216.06,431.08z"/>
				<g>
					<path class="st48" d="M220.52,460.35c0,1.73,0,4.82,0,4.82s-18.67,6.79-27.55-1.72c0,0-0.13-1.73,0.32-4.27
						c0.58-3.39,2.18-8.2,6.43-12.31l3.58-5.38c0,0,0.19,6.22,4.81,6.5c4.62,0.27,6.06-5.61,6.06-5.61l2.25,5.88
						c0,0,3.59,9.01,4.07,11.7C220.51,460.12,220.52,460.25,220.52,460.35z"/>
					<path class="st49" d="M220.52,460.35c0,1.73,0,4.82,0,4.82s-18.67,6.79-27.55-1.72c0,0-0.13-1.73,0.32-4.27
						c12.41,7.19,26.36,1.15,27.19,0.79C220.51,460.12,220.52,460.25,220.52,460.35z"/>
				</g>
				<path class="st3" d="M239.01,284.37l0.73,33.13l-18.02,122.57c-6.42,2.91-15.45,2.3-20.99-2.75l12.77-158.24L239.01,284.37z"/>
			</g>
			<polygon class="st3" points="267.02,269.32 269.77,316.4 210.19,317.44 214.48,269.32 			"/>
			<line class="st50" x1="239.98" y1="316.82" x2="241.92" y2="283.73"/>
			<path class="st50" d="M237.35,283.08c0,0-1.49,19.25,3.6,19.25"/>
			<path class="st48" d="M239.75,282.5c-19.74,0-25.95-4.63-25.95-4.63l0.76-8.55h48.55l0.57,9.77
				C263.67,279.09,259.49,282.5,239.75,282.5z"/>
			
				<rect x="235.37" y="275.91" transform="matrix(-1 -1.224647e-16 1.224647e-16 -1 481.5954 559.64)" class="st51" width="10.85" height="7.82"/>
		</g>
		<path class="st52" d="M211.13,268c0.18,0.18,1.12,4.94,1.55,5.16c3.81,2.05,15.2,4.65,27.07,4.65
			c12.16-0.01,16.26,0.49,25.79-3.86c0.41-0.19,1.98-4.3,2.48-5.14c0,0-2.96-23.47-0.08-38.94l1.17-3.28l10.54-29.54
			c0,0-19.45-19.13-39.57-21.56c-19.79,3.52-40.24,21.44-40.24,21.44l12.38,32.95C215.1,245.34,211.13,268,211.13,268z"/>
		
			<rect x="241.16" y="228.03" transform="matrix(-1 -1.224647e-16 1.224647e-16 -1 483.2746 505.8277)" class="st53" width="0.94" height="49.77"/>
		<g>
			<path class="st10" d="M227.42,179.89c0,0,3.51,7.15,13.46,7.52c9.96,0.38,13.41-7.73,13.41-7.73l-0.13-2.87l-0.48-10.26
				l-12.32,1.48l-12.85-1.83l-0.35,4.39L227.42,179.89z"/>
			<path class="st31" d="M228.15,170.59c3.11,4.7,11.6,13.95,25.91,4.09l-0.38-8.13l-12.32,1.48l-12.85-1.83L228.15,170.59z"/>
		</g>
		<path class="st54" d="M244.65,188.32c-2.59-1.12-5.18-1.19-7.77-0.22l3.86,9.16C242.67,194.51,243.93,191.52,244.65,188.32z"/>
		<polygon class="st54" points="234.46,258.24 240.75,267.07 247.71,258.45 242.43,194.47 239.48,194.27 		"/>
		<polygon class="st34" points="257.34,179.65 254.09,175.49 240.88,187.41 227.62,175.24 224.13,179.65 231.99,196.44 
			240.88,187.41 249.37,196.44 		"/>
		<g>
			<path class="st46" d="M255.69,177.19c1.34,0.89,2.62,1.77,3.84,2.64c13.23,9.36,20.12,17.23,20.12,17.23l-10.54,29.54l-1.17,3.28
				c-2.88,15.47,16.86,137.58,16.86,137.58c-0.5,0.83-16.46,10.97-27.57,10.95c0,0-9.13-99.94-9.17-120.78
				c-0.03-12.16,0.23-22.68,0.68-31.72C249.65,193.63,255.69,177.19,255.69,177.19z"/>
			<path class="st46" d="M233.59,224.74c0.45,9.04,0.71,19.56,0.68,31.72c-0.04,20.84-13.46,121.95-13.46,121.95
				c-11.11,0.02-25.25-12.26-25.76-13.1c0,0,22.21-121.14,19.33-136.6l-1.17-3.28l-13.37-28.49c0,0,9.71-8.92,22.94-18.28
				c1.23-0.86,2.51-1.75,3.84-2.64C226.63,176.02,232.19,195.65,233.59,224.74z"/>
			<path class="st35" d="M262.71,197.26l-5.37-7.11l7.84,1.51l-5.65-11.83c-1.23-0.86-2.51-1.75-3.84-2.64
				c0,0-6.24,17.09-6.96,48.72L262.71,197.26z"/>
			<path class="st35" d="M219.6,196.09l5.37-7.11l-7.84,1.51l5.65-11.83c1.23-0.86,2.51-1.75,3.84-2.64c0,0,6.33,15.63,6.96,48.72
				L219.6,196.09z"/>
		</g>
		<path class="st55" d="M248.32,261.05c-0.07,0-0.14,0-0.2,0c-0.04-1.3-0.06-2.45-0.06-3.42c-0.02-5.8,0.04-11.21,0.14-16.28
			c5.51-0.43,11-1.11,16.48-1.84c0.23-0.01,0.73-0.05,1.61-0.12c0.5-0.04,1-0.08,1.51-0.12c0.23,4.77,0.76,10.87,1.48,17.79
			c-0.18,0.12-0.36,0.25-0.55,0.36C265.82,259.14,249.56,261.03,248.32,261.05z"/>
		<path class="st55" d="M234.14,260.71c-0.58-0.04-1.16-0.07-1.74-0.12c-0.13-0.01-0.43-0.04-0.78-0.07
			c-0.67-0.11-1.94-0.29-2.26-0.35c-5.2-0.97-10.29-2.36-15.33-3.92c-0.46-0.14-0.92-0.26-1.37-0.37c0.77-6.29,1.36-11.9,1.69-16.45
			c4.04,0.93,8.2,1.48,12.33,1.9c2.49,0.25,4.99,0.4,7.48,0.46c0.09,4.61,0.13,9.48,0.11,14.68
			C234.27,257.63,234.22,259.06,234.14,260.71z"/>
		<g>
			<g>
				<g>
					<path class="st10" d="M257.35,153.14c0,0,3.39-7.93,8.55-6.01c5.16,1.93-0.62,15.1-8.55,12.25L257.35,153.14z"/>
					<path class="st40" d="M264.28,150.77c-3.69-0.05-5.8,3.27-5.89,3.41c-0.09,0.14-0.05,0.33,0.1,0.42
						c0.05,0.03,0.11,0.05,0.16,0.05c0.1,0,0.2-0.05,0.26-0.15c0.01-0.02,0.8-1.26,2.21-2.17c1.27,0.83,0.62,2.98,0.61,3
						c-0.05,0.16,0.04,0.34,0.2,0.39c0.03,0.01,0.06,0.02,0.09,0.02c0.13,0,0.25-0.08,0.29-0.21c0.03-0.11,0.72-2.37-0.62-3.52
						c0.71-0.36,1.54-0.62,2.48-0.62c0.03,0,0.06,0,0.1,0c0.15,0.03,0.31-0.13,0.31-0.3C264.59,150.92,264.45,150.78,264.28,150.77z
						"/>
				</g>
				<g>
					<path class="st10" d="M225.14,153.14v6.24c-5.27,1.9-9.6-3.3-10.39-7.55c-0.39-2.14,0.11-4.04,1.84-4.7
						c3.65-1.36,6.4,2.19,7.7,4.4C224.84,152.45,225.14,153.14,225.14,153.14z"/>
					<path class="st40" d="M218.2,150.77c3.69-0.05,5.8,3.27,5.89,3.41c0.09,0.14,0.05,0.33-0.1,0.42
						c-0.05,0.03-0.11,0.05-0.16,0.05c-0.1,0-0.2-0.05-0.26-0.15c-0.01-0.02-0.8-1.26-2.21-2.17c-1.27,0.83-0.62,2.98-0.61,3
						c0.05,0.16-0.04,0.34-0.2,0.39c-0.03,0.01-0.06,0.01-0.09,0.02c-0.13,0-0.25-0.08-0.29-0.21c-0.03-0.11-0.72-2.37,0.62-3.52
						c-0.71-0.36-1.54-0.62-2.48-0.62c-0.03,0-0.06,0-0.1,0c-0.15,0.03-0.31-0.13-0.31-0.3
						C217.89,150.92,218.03,150.78,218.2,150.77z"/>
				</g>
				<path class="st10" d="M258.97,149.41c0,5.93-1.34,11.41-3.57,15.81c-2.04,4.01-4.84,8.21-8.07,9.96
					c-1.01,0.54-3.71,0.82-6.29,0.84c-2.32,0.02-4.56-0.18-5.4-0.59c-3.29-1.63-6.15-5.74-8.26-9.68
					c-2.41-4.49-3.85-10.16-3.85-16.33c0-4.74-1.49-10.45,0-14.29c3.06-7.9,11.14-11.97,17.72-11.97c5.81,0,13.86,3.2,17.09,9.6
					C260.56,137.13,258.97,143.51,258.97,149.41z"/>
				<g>
					<g>
						<g>
							<path class="st40" d="M229.81,155.83c-0.04,0.29-0.8,0.43-1.7,0.3c-0.89-0.13-1.59-0.47-1.54-0.76
								c0.04-0.29,0.8-0.43,1.7-0.3C229.16,155.2,229.85,155.54,229.81,155.83z"/>
							<path class="st40" d="M229.97,157.6c-0.04-0.29-0.8-0.43-1.7-0.3c-0.9,0.13-1.59,0.47-1.54,0.76c0.04,0.29,0.8,0.43,1.7,0.3
								C229.32,158.24,230.01,157.9,229.97,157.6z"/>
						</g>
						<g>
							<path class="st40" d="M252.69,157.6c0.04-0.29,0.8-0.43,1.7-0.3c0.89,0.13,1.59,0.47,1.54,0.76c-0.04,0.29-0.8,0.43-1.7,0.3
								C253.34,158.24,252.65,157.9,252.69,157.6z"/>
							<path class="st40" d="M252.53,155.83c0.04,0.29,0.8,0.43,1.7,0.3c0.9-0.13,1.59-0.47,1.54-0.76c-0.04-0.29-0.8-0.43-1.7-0.3
								S252.49,155.54,252.53,155.83z"/>
						</g>
					</g>
					<g>
						<g>
							<path class="st30" d="M235.22,150.98c0,2.35-0.49,4.26-1.1,4.26c-0.61,0-1.1-1.91-1.1-4.26s0.49-4.26,1.1-4.26
								C234.72,146.72,235.22,148.63,235.22,150.98z"/>
							<path class="st30" d="M249.49,150.98c0,2.35-0.49,4.26-1.1,4.26c-0.61,0-1.1-1.91-1.1-4.26c0-2.35,0.49-4.26,1.1-4.26
								C249,146.72,249.49,148.63,249.49,150.98z"/>
						</g>
						<g>
							<path class="st40" d="M241.41,159.95c-0.04,0-0.07,0-0.11,0c-0.46-0.04-1.55-0.44-1.67-3.22c-0.19-4.56,0.55-7.08,0.58-7.18
								c0.05-0.16,0.22-0.26,0.38-0.21c0.16,0.05,0.26,0.22,0.21,0.38c-0.01,0.02-0.74,2.54-0.56,6.98
								c0.08,1.88,0.62,2.59,1.11,2.63c0.71,0.07,1.78-1.14,2.23-3.2c0.04-0.17,0.2-0.27,0.37-0.23c0.17,0.04,0.27,0.2,0.23,0.37
								C243.71,158.43,242.56,159.95,241.41,159.95z"/>
						</g>
						<g>
							<path class="st40" d="M241.54,167.16c-4.32,0-6.92-3.32-7.03-3.46c-0.1-0.12-0.07-0.3,0.05-0.4c0.12-0.1,0.3-0.07,0.4,0.05
								c0.02,0.03,2.54,3.24,6.58,3.24c4.02,0,5.96-3.18,5.97-3.21c0.08-0.13,0.26-0.18,0.39-0.1c0.13,0.08,0.18,0.25,0.1,0.39
								C247.92,163.82,245.88,167.16,241.54,167.16z"/>
						</g>
						<g>
							<g>
								<g>
									<path class="st56" d="M253.74,147.32c-0.39,0-0.74-0.24-0.88-0.63c-0.02-0.06-0.66-1.83-2.26-2.6
										c-1.01-0.48-2.21-0.48-3.59,0.01c-0.48,0.17-1.01-0.08-1.18-0.56c-0.17-0.48,0.08-1.01,0.56-1.18
										c1.87-0.67,3.57-0.64,5.04,0.07c2.31,1.13,3.16,3.56,3.19,3.67c0.16,0.48-0.1,1.01-0.58,1.17
										C253.93,147.31,253.84,147.32,253.74,147.32z"/>
								</g>
								<g>
									<path class="st56" d="M229.01,147.32c-0.1,0-0.2-0.01-0.29-0.05c-0.48-0.16-0.74-0.69-0.58-1.17
										c0.03-0.1,0.88-2.54,3.19-3.67c1.47-0.71,3.16-0.74,5.04-0.07c0.48,0.17,0.73,0.7,0.56,1.18c-0.17,0.48-0.7,0.73-1.18,0.56
										c-1.39-0.49-2.6-0.5-3.61-0.01c-1.6,0.78-2.24,2.58-2.25,2.59C229.76,147.08,229.4,147.32,229.01,147.32z"/>
								</g>
							</g>
						</g>
					</g>
				</g>
				<path class="st56" d="M253.3,162.9c0,0-1.83-1.8-2.82-2.19c-1.8-0.72-16.83-0.54-18.2,0c-0.99,0.39-2.82,2.19-2.82,2.19
					c-2.94,0.02-5.93-13.48-5.93-13.48c0,6.17,1.44,11.84,3.85,16.33c2.11,3.94,4.97,8.05,8.26,9.68c0.76,0.38,2.69,0.57,4.78,0.59
					l0,0c0.2,0,0.4,0,0.62,0c2.29-0.01,5.32-0.21,6.08-0.59c3.29-1.63,6.15-5.74,8.26-9.68c2.41-4.49,3.85-10.16,3.85-16.33
					C259.24,149.42,256.24,162.91,253.3,162.9z M241.38,169.12c0,0-1.54,4.59-2.32,4.41c-4.58-1.03-7.76-4.76-7.76-7.78
					c0-3.54,4.44-4.23,10.3-4.23c5.85,0,10.17,0.71,10.17,4.26c0,3.01-3.17,6.71-7.72,7.75
					C243.24,173.7,241.38,169.12,241.38,169.12z"/>
			</g>
			<path class="st56" d="M251.22,119.55c0,0,15.93-3.73,8.02,30.43c-0.12,0.5-0.26-0.57-0.26-0.57s-0.19-10.43-2.64-13.62
				c-2.45-3.19-6.55-5.66-6.55-8.39C249.77,124.66,251.22,119.55,251.22,119.55z"/>
			<path class="st56" d="M223.96,139.52c0,0,17.24,1.44,27.26-9.1l3.85-3.03c0,0-4.68-15.19-14.64-12.09
				c-9.08,2.83-19.63,3.63-20.54,15.28c-1.04,13.23,3.8,22.25,3.8,22.25L223.96,139.52z"/>
		</g>
		<g>
			<g>
				<g>
					<path class="st10" d="M232.53,226.94c0,0-9.81-0.16-11.87,0.37c-3.11,0.99-7.06,4.86-7.73,5.41c-1.23,1.44-2.44,5.57-2.25,6.71
						c-0.22,1.69,0.58,3.53,2.09,1.68c1.56-2.99,2.91-6.47,2.91-6.47l3.5-2.79c0,0-2.24,2.19-2.91,3.12
						c-0.67,0.93-2.02,8.89-1.43,9.83c0.6,0.95,2.66-0.07,2.9-1.99c0,0-0.04,1.89,0.55,2.28c0.6,0.39,1.31,0.02,1.92-2.48
						c0,0,0.55,1.47,1.33,1.45c1.62-0.28,2.07-5.56,2.38-5.91c0.31-0.35,5.38,1.39,8.02-4.51
						C235.03,228.59,232.53,226.94,232.53,226.94z"/>
					<path class="st19" d="M217.75,242.8c-0.02-1.07,0.12-2.11,0.27-3.15c0.2-1.02,0.4-2.05,0.86-2.98
						C218.55,238.71,218.3,240.75,217.75,242.8z"/>
					<path class="st19" d="M220.23,242.59c-0.02-0.88,0.13-1.72,0.3-2.56c0.21-0.82,0.42-1.66,0.86-2.38
						C221.08,239.31,220.78,240.95,220.23,242.59z"/>
				</g>
			</g>
			<path class="st10" d="M214.34,253.32c0.27-0.04,0.54-0.1,0.82-0.16c8.07-1.73,43.98-14.63,43.98-14.63l-0.12-2.01l-0.26-4.29
				l-5.28-0.85c0,0-12.06,1.05-29.58,4.55c-1.27,0.14-2.5,0.32-3.7,0.53c-8.13,1.46-14.38,4.52-17.36,7.69
				c-1.05,1.11-1.69,2.22-1.88,3.28C200.18,251.94,206.53,254.74,214.34,253.32z"/>
			<path class="st10" d="M285.26,211.63c-1.26,15.99-3.02,22.1-11.12,38.78c-3.49,1.46-9.86-0.79-12.61-7.46
				c1.6-8.5,2.84-19.13,5.35-28.09c4.88-13.43,12.77-17.81,12.77-17.81S285.05,203.18,285.26,211.63z"/>
			<path class="st10" d="M226.4,226.91l6.33,0.01c0,0,9.19,2.44,24.12,7.77c11.13,2.78,18.13,9.05,17.98,13.49
				c-0.15,4.54-6.63,6.55-13.47,4.03c-6.79-2.5-36.17-19.64-36.17-19.64L226.4,226.91z"/>
			<path class="st46" d="M280.54,255.81c1.18-0.79,3.91-28.68,5.15-44.63c-0.22-8.43-6.04-14.13-6.04-14.13s-7.87,3.84-12.74,17.23
				c-1.93,6.9-3.57,14.61-4.75,21.74"/>
			<path class="st24" d="M269.77,205.06c0,0-3.4,29.14-0.46,32.59c2.95,3.44,2.42,6.36,2.42,6.36l-9.57-8.79L269.77,205.06z"/>
			<g>
				<path class="st10" d="M250.76,236.78c0,0,3.33-10.26,4.6-12.25c2.11-2.92,7.57-5.56,8.38-6.04c1.92-0.71,6.58-0.33,7.69,0.32
					c1.78,0.43,3.39,1.97,1.05,2.8c-3.55,0.46-7.61,0.52-7.61,0.52l-4.61,2.92c0,0,3.56-1.84,4.75-2.17
					c1.19-0.33,9.76,1.29,10.52,2.25c0.76,0.96-0.9,2.69-2.91,2.23c0,0,1.91,0.65,2.12,1.4c0.2,0.75-0.4,1.35-3.11,1.07
					c0,0,1.31,1.1,1.05,1.89c-0.79,1.56-6.07,0.3-6.53,0.5c-0.47,0.2-0.57,5.95-7.67,6.67C251.97,240.4,250.76,236.78,250.76,236.78
					z"/>
				<path class="st31" d="M264.5,231.1c0.39,0.07,4.83,1.32,8.18,0.63c-0.83,1.63-6.1,0.31-6.53,0.5c-0.86,0.59-0.15,5.44-7.01,6.32
					c-2.42,0.6-7.54-2.46-8.68-2.82C260.3,235.79,262.64,237.46,264.5,231.1z"/>
				<path class="st31" d="M272.75,227.23c-1.02-0.37-2.07-0.58-3.11-0.79c-1.05-0.16-2.12-0.33-3.16-0.23
					C268.57,226.6,270.63,227.04,272.75,227.23z"/>
				<path class="st31" d="M271.54,229.65c-0.85-0.3-1.71-0.44-2.58-0.57c-0.86-0.08-1.75-0.16-2.59-0.01
					C268.1,229.34,269.79,229.61,271.54,229.65z"/>
			</g>
			<path class="st46" d="M214.74,236.92c2.4-0.75,5.35-1.48,9.03-2.18c17.47-3.47,29.08-5.21,29.08-5.21
				c3.84,3.48,5.41,11.98,5.87,17.4c0,0-56.25,12.65-57.62,12.19"/>
			<path class="st46" d="M192.7,211.58c0.16,16.5,7.02,47.08,8.4,47.54l14.47-22.45c-0.01-0.1-0.02-0.2-0.03-0.3
				c-0.71-7.16-2.16-14.8-3.65-21.7c-0.42-1.4-0.89-2.7-1.37-3.91c-4.29-10.55-10.67-13.84-10.67-13.84S193.56,202.86,192.7,211.58z
				"/>
			<path class="st24" d="M205.69,253.69c2.65,2.47,22.71-2.86,53.04-6.75c0,0-56.25,12.65-57.62,12.19
				c-1.37-0.47-8.24-31.05-8.4-47.54C191.39,214.87,203.45,254.39,205.69,253.69z"/>
			<path class="st46" d="M280.54,255.81c-9.38,4.25-58.42-20.74-58.42-20.74c0.78-5.18,3.42-7.44,7.17-8.65
				c0,0,6.05-0.14,24.27,6.36c3.35,1.2,11.09,3.79,13.85,6.18C270.17,241.36,280.54,255.81,280.54,255.81z"/>
			<path class="st24" d="M278.86,246.27c4.87-13.38,6.6-43.51,6.82-35.08c-1.24,15.95-3.97,43.83-5.15,44.63
				c-9.38,4.25-58.42-20.74-58.42-20.74C225.96,233.01,275.47,256.61,278.86,246.27z"/>
			<path class="st57" d="M210.19,203.63"/>
			<path class="st24" d="M204.55,245.6c-0.46-0.31,7.86-8.8,11.02-8.92c-0.71-7.16-2.19-15.1-3.68-22c-0.42-1.4-0.89-2.7-1.37-3.91
				c0.3,9.93,3.75,23.97,1.94,24.6C205.87,237.65,204.55,245.6,204.55,245.6z"/>
		</g>
	</g>
</g>
</svg>
